<?xml version="1.0" encoding="UTF-8"?><!DOCTYPE svg PUBLIC "-//W3C//DTD SVG 1.1//EN" "http://www.w3.org/Graphics/SVG/1.1/DTD/svg11.dtd"><svg xmlns="http://www.w3.org/2000/svg" xmlns:xlink="http://www.w3.org/1999/xlink" xmlns:rdf="http://www.w3.org/1999/02/22-rdf-syntax-ns#" xmlns:cc="http://creativecommons.org/ns#" xmlns:dc="http://purl.org/dc/elements/1.1/"><symbol id="icon-big-star-o" viewBox="0 0 1407 1338">
  <path fill-rule="nonzero" d="M730 82l139 430 538 -1 -436 315 167 512 -435 -317 -434 317 167 -512 -436 -315 538 1 165 -512 27 82zm92 466l-119 -367 -124 387 -407 -1 329 238 -126 386 328 -239 329 239 -127 -386 330 -238 -407 1 -6 -20z"/>
</symbol><symbol id="icon-big-star" viewBox="0 0 1407 1338">
  <polygon points="730,82 869,512 1407,511 971,826 1138,1338 703,1021 269,1338 436,826 0,511 538,512 703,0 "/>
</symbol><symbol id="icon-btn-call" viewBox="0 0 69.94 70.03">
  <path d="M1146.24,3606.66a50.8,50.8,0,0,0-1.54,6.15l-0.19.56c-0.95,3.54-2.68,16.39,11.1,31.84,13.76,15.65,29.06,17.88,36.91,17.88h2.68c0.57,0,2.67-1.11,7.64-4.66a2.267,2.267,0,0,0,.96-0.93l1.53-2.42a3.213,3.213,0,0,0,.19-2.98,2.629,2.629,0,0,0-2.29-1.86l-10.89-2.61a4.377,4.377,0,0,0-2.68.37l-2.68,1.68a7.911,7.911,0,0,1-7.07.56,12.564,12.564,0,0,1-1.91-.75c-2.49-.74-5.74-1.68-10.9-6.33-8.6-7.82-12.24-14.9-11.09-21.23a9.225,9.225,0,0,1,2.49-4.66l0.19-.18,3.24-1.68c-0.19-2.23-2.1-9.13-3.82-14.72a4.057,4.057,0,0,0-.96-0.18,26.453,26.453,0,0,0-6.11,1.11A42.5,42.5,0,0,0,1146.24,3606.66Zm46.27,60.34c-8.61,0-25.05-2.42-39.97-19.19-14.92-16.94-12.81-31.09-11.85-35.2l0.19-.56c1.33-6.33,1.72-7.08,2.1-7.63,1.33-1.68,4.78-5.77,6.69-6.15a33.138,33.138,0,0,1,7.27-1.3c3.45,0,4.41,1.68,4.59,2.61,5.55,16.76,4.21,17.87,3.25,18.62l-3.82,1.86a6.592,6.592,0,0,0-1.15,2.61c-0.96,5.03,2.49,10.99,9.94,17.88,4.4,4.09,7.07,4.84,9.37,5.4a16.729,16.729,0,0,1,2.68.93,3.367,3.367,0,0,0,3.25-.18l2.68-1.68a7,7,0,0,1,5.73-.93l10.9,2.61a7.319,7.319,0,0,1,4.97,4.09,6.835,6.835,0,0,1-.38,6.34l-1.53,2.42a9.842,9.842,0,0,1-1.92,2.05c-7.27,5.22-8.98,5.22-9.56,5.22A23.015,23.015,0,0,1,1192.51,3667Z" transform="translate(-1140 -3596.97)"/>
</symbol><symbol id="icon-btn-email" viewBox="0 0 75 49.97">
  <path d="M1410,3652.35l-22.53-21.42,22.53-19.37v40.79Zm-65.97,1.27,21.8-20.71,9.67,8.31,9.67-8.32,21.8,20.72h-62.94Zm-3.03-42.06,22.53,19.37L1341,3652.35v-40.79Zm66.54-1.86-32.04,27.55-32.04-27.55h64.08Zm-69.54-3.03v49.98h75v-49.98h-75Z" transform="translate(-1338 -3606.69)"/>
</symbol><symbol id="icon-btn-facebook" viewBox="0 0 76.09 75.88">
  <path d="M1815.88,3608.56H1748.2a4.2,4.2,0,0,0-4.2,4.19v67.5a4.2,4.2,0,0,0,4.2,4.19h36.44v-29.39h-9.92V3643.6h9.92v-8.44c0-9.8,6-15.14,14.76-15.14a84.264,84.264,0,0,1,8.86.45v10.25h-6.08c-4.76,0-5.69,2.26-5.69,5.57v7.31h11.37l-1.48,11.45h-9.89v29.39h19.39a4.2,4.2,0,0,0,4.2-4.19v-67.5A4.2,4.2,0,0,0,1815.88,3608.56Z" transform="translate(-1744 -3608.56)"/>
</symbol><symbol id="icon-btn-instagram" viewBox="0 0 79.22 79">
  <path d="M1935.82,3614.12c10.58,0,11.83.04,16.01,0.23a21.786,21.786,0,0,1,7.35,1.36,13.049,13.049,0,0,1,7.52,7.49,21.828,21.828,0,0,1,1.36,7.34c0.19,4.16.23,5.41,0.23,15.96s-0.04,11.8-.23,15.96a21.828,21.828,0,0,1-1.36,7.34,13.049,13.049,0,0,1-7.52,7.49,21.786,21.786,0,0,1-7.35,1.36c-4.18.19-5.43,0.23-16.01,0.23s-11.83-.04-16-0.23a21.92,21.92,0,0,1-7.36-1.36,13.07,13.07,0,0,1-7.51-7.49,21.759,21.759,0,0,1-1.37-7.34c-0.19-4.16-.23-5.41-0.23-15.96s0.04-11.8.23-15.96a21.759,21.759,0,0,1,1.37-7.34,13.07,13.07,0,0,1,7.51-7.49,21.92,21.92,0,0,1,7.36-1.36c4.18-.19,5.43-0.23,16-0.23m0-7.12c-10.75,0-12.1.05-16.33,0.24a29.284,29.284,0,0,0-9.61,1.83,20.184,20.184,0,0,0-11.58,11.56,29.027,29.027,0,0,0-1.85,9.58c-0.19,4.22-.23,5.56-0.23,16.29s0.04,12.07.23,16.29a29.027,29.027,0,0,0,1.85,9.58,20.184,20.184,0,0,0,11.58,11.56,29.284,29.284,0,0,0,9.61,1.83c4.23,0.19,5.58.24,16.33,0.24s12.11-.05,16.33-0.24a29.3,29.3,0,0,0,9.62-1.83,20.26,20.26,0,0,0,11.58-11.56,28.8,28.8,0,0,0,1.84-9.58c0.2-4.22.24-5.56,0.24-16.29s-0.04-12.07-.24-16.29a28.8,28.8,0,0,0-1.84-9.58,20.26,20.26,0,0,0-11.58-11.56,29.3,29.3,0,0,0-9.62-1.83c-4.22-.19-5.57-0.24-16.33-0.24h0Zm0,19.22a20.28,20.28,0,1,0,20.34,20.28A20.313,20.313,0,0,0,1935.82,3626.22Zm0,33.45a13.17,13.17,0,1,1,13.21-13.17A13.187,13.187,0,0,1,1935.82,3659.67Zm25.9-34.25a4.755,4.755,0,1,1-4.75-4.74A4.752,4.752,0,0,1,1961.72,3625.42Z" transform="translate(-1896.22 -3607)"/>
</symbol><symbol id="icon-btn-twitter" viewBox="0 0 86.28 69.62">
  <path d="M2133,3619.93h0m-26.54-8.24a17.623,17.623,0,0,0-17.25,21.58,50.362,50.362,0,0,1-36.48-18.36,17.5,17.5,0,0,0,5.48,23.46,17.694,17.694,0,0,1-8.02-2.2v0.23a17.622,17.622,0,0,0,14.2,17.23,17.937,17.937,0,0,1-4.66.61,18.168,18.168,0,0,1-3.33-.31,17.686,17.686,0,0,0,16.53,12.2,35.645,35.645,0,0,1-21.98,7.53,36.647,36.647,0,0,1-4.22-.25,50.3,50.3,0,0,0,27.13,7.9c32.56,0,50.36-26.78,50.36-50.01,0-.76-0.02-1.52-0.05-2.27a35.7,35.7,0,0,0,8.83-9.1,35.354,35.354,0,0,1-10.17,2.77,17.622,17.622,0,0,0,7.79-9.72,35.743,35.743,0,0,1-11.24,4.26,17.762,17.762,0,0,0-12.92-5.55" transform="translate(-2046.72 -3611.69)"/>
</symbol><symbol id="icon-btn-website" viewBox="0 0 60 60">
  <path d="M1551.17,3643.4h8.33c1.5,6,4.12,11.02,7.42,14.32A27,27,0,0,1,1551.17,3643.4Zm15.68-37.2c-3.3,3.3-5.93,8.32-7.43,14.32h-8.25A27.6,27.6,0,0,1,1566.85,3606.2Zm36.45,27.07a1.82,1.82,0,0,1-.07.61,1.2,1.2,0,0,1-.08.52c0,0.3-.07.6-0.07,0.9v0.07a27.2,27.2,0,0,1-1.28,5.4h-8.7a47.581,47.581,0,0,0,.75-8.77,54.68,54.68,0,0,0-.75-8.78h8.77a27.12,27.12,0,0,1,1.28,5.4v0.08a3.863,3.863,0,0,1,.07.89,1.225,1.225,0,0,0,.08.53,1.791,1.791,0,0,0,.07.6v1.27A7.789,7.789,0,0,1,1603.3,3633.27Zm-28.65,10.13v15.82c-5.55-.82-10.28-7.12-12.53-15.82h12.53Zm0-38.63v15.83h-12.53C1564.37,3611.82,1569.1,3605.6,1574.65,3604.77Zm2.7,15.83v-15.83c5.55,0.83,10.27,7.13,12.52,15.83h-12.52Zm12.52,22.8c-2.25,8.7-6.97,15-12.52,15.82V3643.4h12.52Zm1.43-11.4a47.475,47.475,0,0,1-.82,8.77h-13.13v-17.54h13.13A47.475,47.475,0,0,1,1591.3,3632Zm-5.48-25.57a2.249,2.249,0,0,1,.68.3c0.15,0.07.37,0.15,0.52,0.22,0.23,0.08.45,0.23,0.68,0.3,0.15,0.08.37,0.15,0.52,0.23,0.23,0.07.45,0.23,0.68,0.3a4.621,4.621,0,0,1,.52.3,3.916,3.916,0,0,1,.6.38,4,4,0,0,0,.53.3c0.22,0.15.37,0.22,0.6,0.37,0.15,0.08.3,0.23,0.45,0.3,0.22,0.15.37,0.3,0.6,0.45,0.15,0.15.3,0.23,0.45,0.38,0.22,0.15.37,0.3,0.6,0.45,0.15,0.15.3,0.22,0.45,0.37s0.37,0.3.52,0.45,0.3,0.23.45,0.38a2.837,2.837,0,0,1,.52.52,2.039,2.039,0,0,0,.45.37,3.311,3.311,0,0,0,.53.53,1.835,1.835,0,0,1,.37.45c0.15,0.15.3,0.37,0.45,0.52s0.23,0.3.38,0.45,0.3,0.37.45,0.52,0.22,0.3.37,0.45a3.129,3.129,0,0,1,.38.6c0.07,0.15.22,0.3,0.3,0.45,0.15,0.23.22,0.38,0.37,0.61a2.463,2.463,0,0,1,.3.52c0.15,0.22.23,0.37,0.38,0.6,0.07,0.15.22,0.38,0.3,0.52a3.344,3.344,0,0,0,.3.6,1.785,1.785,0,0,0,.3.53,1.362,1.362,0,0,1,.15.3h-8.4c-1.5-6-4.12-11.02-7.42-14.33a0.153,0.153,0,0,1,.15.08A0.682,0.682,0,0,0,1585.82,3606.43ZM1560.7,3632a47.475,47.475,0,0,1,.82-8.77h13.13v17.55h-13.13A47.667,47.667,0,0,1,1560.7,3632Zm-11.85,3.45v-0.23c0-.3-0.08-0.52-0.08-0.82a1.734,1.734,0,0,0-.07-0.6v-3.75a1.734,1.734,0,0,1,.07-0.6c0-.31.08-0.61,0.08-0.83v-0.15a27.8,27.8,0,0,1,1.27-5.4h8.77a47.691,47.691,0,0,0-.75,8.78,55.722,55.722,0,0,0,.75,8.77h-8.77A22.358,22.358,0,0,1,1548.85,3635.45Zm51.6,8.78c-0.08.22-.23,0.45-0.3,0.67-0.08.15-.23,0.38-0.3,0.53a4.479,4.479,0,0,1-.38.6,4.539,4.539,0,0,0-.3.52c-0.15.23-.23,0.38-0.37,0.6-0.08.15-.23,0.3-0.3,0.45-0.15.23-.31,0.38-0.45,0.6-0.15.15-.23,0.3-0.38,0.45-0.15.23-.3,0.38-0.45,0.6-0.15.15-.22,0.3-0.37,0.45s-0.3.38-.45,0.53-0.23.3-.38,0.45a4.243,4.243,0,0,1-.52.52c-0.15.15-.3,0.3-0.38,0.37a4.381,4.381,0,0,0-.52.53c-0.15.15-.3,0.22-0.45,0.37s-0.37.3-.52,0.45-0.3.23-.45,0.38c-0.23.15-.38,0.3-0.6,0.45-0.15.14-.3,0.22-0.45,0.37-0.23.15-.38,0.3-0.6,0.45-0.15.07-.3,0.23-0.45,0.3-0.23.15-.45,0.3-0.6,0.38s-0.31.22-.45,0.3c-0.23.15-.45,0.22-0.68,0.37a4.621,4.621,0,0,0-.52.3c-0.23.15-.45,0.23-0.68,0.38a3.873,3.873,0,0,1-.52.22c-0.23.08-.45,0.23-0.68,0.3a3.784,3.784,0,0,1-.52.23c-0.23.08-.45,0.23-0.68,0.3-0.15.08-.37,0.15-0.52,0.23a0.147,0.147,0,0,0-.15.07c3.3-3.3,5.93-8.32,7.43-14.32h8.32a1.362,1.362,0,0,0-.15.3A0.44,0.44,0,0,0,1600.45,3644.23Zm5.48-9.91c0-.3.07-0.6,0.07-0.89v-2.86c0-.3-0.07-0.6-0.07-0.89v-0.45a30.018,30.018,0,0,0-59.63-1.28v0.07c-0.08.38-.08,0.75-0.15,1.2a1.225,1.225,0,0,1-.08.53c0,0.3-.07.52-0.07,0.82v2.85a3.329,3.329,0,0,0,.07.83,1.2,1.2,0,0,0,.08.52,5.383,5.383,0,0,0,.15,1.12v0.15a29.973,29.973,0,0,0,59.55-1.27C1605.85,3634.62,1605.93,3634.48,1605.93,3634.32Z" transform="translate(-1546 -3602)"/>
</symbol><symbol id="icon-chevron-right" viewBox="0 0 30 50">
 <g transform="translate(0 -1002.4)">
  <path d="m2.5383 1003.3 24.015 24.119-24.015 24.119" stroke-miterlimit="4.2" stroke-width="2.0435"/>
 </g>
</symbol><symbol id="icon-credit-card" viewBox="0 0 46 34">
<path fill-rule="evenodd" d="M42.170,34.000 L3.844,34.000 C1.730,34.000 0.011,32.267 0.011,30.137 L0.011,3.869 C0.011,1.740 1.730,0.006 3.844,0.006 L42.170,0.006 C44.283,0.006 46.004,1.740 46.004,3.869 L46.004,30.137 C46.004,32.267 44.283,34.000 42.170,34.000 ZM44.470,3.869 C44.470,2.592 43.438,1.551 42.170,1.551 L3.844,1.551 C2.577,1.551 1.544,2.592 1.544,3.869 L1.544,4.642 L44.470,4.642 L44.470,3.869 ZM44.470,6.187 L1.544,6.187 L1.544,10.822 L44.470,10.822 L44.470,6.187 ZM44.470,12.367 L1.544,12.367 L1.544,30.137 C1.544,31.414 2.577,32.455 3.844,32.455 L42.170,32.455 C43.438,32.455 44.470,31.414 44.470,30.137 L44.470,12.367 ZM40.638,29.365 L26.840,29.365 C26.416,29.365 26.073,29.019 26.073,28.591 L26.073,20.865 C26.073,20.439 26.416,20.093 26.840,20.093 L40.638,20.093 C41.062,20.093 41.404,20.439 41.404,20.865 L41.404,28.591 C41.404,29.019 41.062,29.365 40.638,29.365 ZM39.871,21.638 L27.607,21.638 L27.607,27.819 L39.871,27.819 L39.871,21.638 ZM21.474,20.865 L19.175,20.865 C18.751,20.865 18.408,20.520 18.408,20.093 C18.408,19.667 18.751,19.320 19.175,19.320 L21.474,19.320 C21.898,19.320 22.241,19.667 22.241,20.093 C22.241,20.520 21.898,20.865 21.474,20.865 ZM21.474,17.776 L14.585,17.776 C14.161,17.776 13.818,17.430 13.818,17.003 C13.818,16.575 14.161,16.230 14.585,16.230 L21.474,16.230 C21.898,16.230 22.241,16.575 22.241,17.003 C22.241,17.430 21.898,17.776 21.474,17.776 ZM11.499,17.776 L4.610,17.776 C4.186,17.776 3.844,17.430 3.844,17.003 C3.844,16.575 4.186,16.230 4.610,16.230 L11.499,16.230 C11.923,16.230 12.266,16.575 12.266,17.003 C12.266,17.430 11.923,17.776 11.499,17.776 ZM4.610,19.320 L16.108,19.320 C16.532,19.320 16.875,19.667 16.875,20.093 C16.875,20.520 16.532,20.865 16.108,20.865 L4.610,20.865 C4.186,20.865 3.844,20.520 3.844,20.093 C3.844,19.667 4.186,19.320 4.610,19.320 Z"/>
</symbol><symbol id="icon-delivery" viewBox="0 0 50 45">
<path fill-rule="evenodd" d="M49.343,38.107 L32.164,44.824 C32.032,44.890 31.902,44.890 31.770,44.890 C31.747,44.890 31.726,44.880 31.703,44.879 C31.661,44.886 31.616,44.890 31.572,44.890 C31.440,44.890 31.310,44.890 31.178,44.824 L16.107,38.037 C15.777,37.902 15.514,37.499 15.514,37.096 L15.708,16.027 C15.670,15.909 15.644,15.787 15.644,15.662 C15.644,15.258 15.906,14.921 16.301,14.720 L32.955,8.137 C33.217,8.071 33.482,8.071 33.679,8.137 L49.145,14.789 C49.355,14.861 49.504,15.009 49.602,15.191 C49.722,15.348 49.802,15.526 49.802,15.734 L50.000,37.165 C50.000,37.569 49.738,37.972 49.343,38.107 ZM17.554,36.491 L30.650,42.336 L30.700,34.989 L30.592,23.124 L19.624,18.142 L17.686,17.277 L17.554,36.491 ZM25.661,13.173 L19.198,15.731 L19.603,15.915 L31.692,21.327 L37.822,18.921 L25.976,13.381 C25.851,13.334 25.747,13.260 25.661,13.173 ZM33.285,10.156 L28.156,12.185 L40.196,17.815 C40.261,17.840 40.306,17.888 40.360,17.925 L46.118,15.664 L33.285,10.156 ZM47.763,17.208 L37.842,21.067 L32.687,23.083 L32.626,29.627 L32.757,42.406 L47.961,36.425 L47.763,17.208 ZM26.043,8.005 C25.911,8.005 25.781,8.005 25.649,7.939 L13.737,2.229 C13.277,1.961 13.012,1.423 13.277,0.884 C13.540,0.416 14.068,0.144 14.595,0.416 L26.507,6.125 C26.966,6.393 27.232,6.931 26.966,7.470 C26.769,7.804 26.439,8.005 26.043,8.005 ZM20.382,9.684 C20.253,10.021 19.858,10.222 19.463,10.222 C19.331,10.222 19.201,10.222 19.069,10.156 L7.154,4.443 C6.694,4.176 6.428,3.637 6.694,3.099 C6.956,2.629 7.483,2.358 8.011,2.629 L19.923,8.339 C20.382,8.607 20.648,9.146 20.382,9.684 ZM13.867,11.901 C13.670,12.238 13.274,12.439 12.947,12.439 C12.815,12.439 12.685,12.439 12.552,12.373 L0.637,6.660 C0.178,6.393 -0.087,5.854 0.178,5.316 C0.440,4.847 0.968,4.575 1.496,4.847 L13.408,10.556 C13.867,10.824 14.132,11.363 13.867,11.901 ZM1.496,11.564 L13.342,17.208 C13.802,17.475 14.068,18.014 13.802,18.552 C13.670,18.955 13.274,19.157 12.947,19.157 C12.815,19.157 12.685,19.157 12.552,19.091 L0.637,13.378 C0.178,13.111 -0.087,12.572 0.178,12.033 C0.440,11.564 0.968,11.293 1.496,11.564 ZM1.496,18.216 L13.342,23.928 C13.802,24.196 14.068,24.735 13.802,25.273 C13.670,25.673 13.274,25.875 12.947,25.875 C12.815,25.875 12.685,25.875 12.552,25.809 L0.637,20.029 C0.178,19.762 -0.087,19.223 0.178,18.685 C0.440,18.216 0.968,17.944 1.496,18.216 Z"/>
</symbol><symbol id="icon-facebook" viewBox="0 0 100 100">
<path fill-rule="evenodd" fill="rgb(59, 89, 152)" d="M-0.000,0.000 L100.000,0.000 L100.000,100.000 L-0.000,100.000 L-0.000,0.000 Z"/>
<path fill-rule="evenodd" fill="rgb(255, 255, 255)" d="M72.242,25.000 L27.757,25.000 C26.232,25.000 24.999,26.234 24.999,27.758 L24.999,72.242 C24.999,73.766 26.232,75.000 27.757,75.000 L52.085,75.000 L52.085,55.545 L45.139,55.545 L45.139,48.605 L52.087,48.605 L52.087,42.200 C52.087,35.742 55.901,31.935 61.663,31.935 C64.422,31.935 66.676,32.232 67.367,32.323 L67.367,39.577 L62.728,39.576 C59.595,39.576 59.010,41.130 59.010,43.315 L59.010,48.605 L67.037,48.605 L65.903,55.545 L59.010,55.545 L59.010,75.000 L72.242,75.000 C73.766,75.000 75.000,73.766 75.000,72.242 L75.000,27.758 C75.000,26.234 73.766,25.000 72.242,25.000 Z"/>
</symbol><symbol id="icon-gplus" viewBox="0 0 100 100">
<path fill-rule="evenodd" fill="rgb(219, 78, 63)" d="M0.000,0.000 L100.000,0.000 L100.000,100.000 L0.000,100.000 L0.000,0.000 Z"/>
<path fill-rule="evenodd" fill="rgb(255, 255, 255)" d="M70.455,52.286 L70.455,56.857 L65.909,56.857 L65.909,52.286 L61.364,52.286 L61.364,47.714 L65.909,47.714 L65.909,43.143 L70.455,43.143 L70.455,47.714 L75.000,47.714 L75.000,52.286 L70.455,52.286 ZM40.909,66.000 C32.114,66.000 25.000,58.846 25.000,50.000 C25.000,41.154 32.114,34.000 40.909,34.000 C45.205,34.000 48.795,35.577 51.568,38.183 L47.250,42.366 C46.068,41.223 44.000,39.897 40.909,39.897 C35.477,39.897 31.045,44.423 31.045,50.000 C31.045,55.577 35.477,60.103 40.909,60.103 C47.204,60.103 49.568,55.554 49.932,53.200 L40.909,53.200 L40.909,47.714 L55.932,47.714 C56.068,48.514 56.182,49.314 56.182,50.366 C56.182,59.509 50.091,66.000 40.909,66.000 Z"/>
</symbol><symbol id="icon-heart-o" viewBox="0 0 73 65">
<path fill-rule="evenodd" d="M67.111,34.933 L41.132,62.972 C39.905,64.288 38.262,65.020 36.492,65.020 C34.727,65.020 33.078,64.294 31.852,62.972 L5.860,34.921 C2.072,31.060 -0.012,25.962 -0.012,20.573 C-0.012,9.224 9.299,-0.009 20.746,-0.009 C26.844,-0.009 32.565,2.626 36.492,7.147 C40.413,2.626 46.123,-0.009 52.237,-0.009 C63.685,-0.009 73.001,9.218 73.001,20.573 C73.001,25.968 70.911,31.070 67.111,34.933 ZM52.230,3.842 C46.520,3.842 41.246,6.673 38.111,11.410 C37.747,11.962 37.151,12.303 36.467,12.284 C35.803,12.280 35.193,11.944 34.837,11.387 L34.716,11.196 C31.567,6.596 26.342,3.848 20.741,3.848 C11.443,3.848 3.879,11.351 3.879,20.567 C3.879,24.963 5.583,29.107 8.683,32.251 C8.706,32.275 8.731,32.304 8.754,32.329 L34.721,60.348 C35.205,60.864 35.827,61.152 36.492,61.152 C37.157,61.152 37.785,60.864 38.262,60.348 L64.253,32.292 C64.271,32.280 64.284,32.263 64.301,32.251 C67.400,29.112 69.105,24.963 69.092,20.561 C69.092,11.338 61.529,3.842 52.230,3.842 ZM21.376,12.303 C16.427,12.303 12.404,16.292 12.404,21.196 C12.404,22.261 11.527,23.131 10.459,23.131 C9.383,23.131 8.506,22.261 8.506,21.196 C8.506,14.159 14.277,8.435 21.376,8.435 C22.451,8.435 23.327,9.302 23.327,10.368 C23.327,11.435 22.451,12.303 21.376,12.303 Z"/>
</symbol><symbol id="icon-heart" viewBox="0 0 73 65">
<path fill-rule="evenodd" d="M67.111,34.934 L41.132,62.972 C39.905,64.289 38.263,65.020 36.491,65.020 C34.727,65.020 33.078,64.295 31.852,62.972 L5.860,34.922 C2.072,31.059 -0.012,25.962 -0.012,20.574 C-0.012,9.224 9.299,-0.009 20.747,-0.009 C26.844,-0.009 32.565,2.626 36.491,7.147 C40.412,2.626 46.123,-0.009 52.237,-0.009 C63.685,-0.009 73.000,9.218 73.000,20.574 C73.000,25.968 70.911,31.070 67.111,34.934 ZM21.376,8.435 C14.277,8.435 8.507,14.160 8.507,21.196 C8.507,22.261 9.383,23.131 10.458,23.131 C11.527,23.131 12.404,22.261 12.404,21.196 C12.404,16.292 16.427,12.303 21.376,12.303 C22.451,12.303 23.327,11.435 23.327,10.368 C23.327,9.302 22.451,8.435 21.376,8.435 Z"/>
</symbol><symbol id="icon-instagram" viewBox="0 0 103 103">
<path fill-rule="evenodd" stroke="rgb(52, 52, 52)" stroke-width="2px" stroke-linecap="butt" stroke-linejoin="miter" fill="rgb(255, 255, 255)" d="M1.000,1.000 L101.000,1.000 L101.000,101.000 L1.000,101.000 L1.000,1.000 Z"/>
<path fill-rule="evenodd" fill="rgb(52, 52, 52)" d="M75.849,61.307 C75.728,63.968 75.305,65.786 74.687,67.376 C74.049,69.020 73.194,70.414 71.804,71.804 C70.414,73.194 69.020,74.049 67.376,74.688 C65.786,75.306 63.969,75.728 61.307,75.850 C58.641,75.971 57.790,76.000 51.000,76.000 C44.210,76.000 43.359,75.971 40.692,75.850 C38.031,75.728 36.214,75.306 34.624,74.688 C32.980,74.049 31.586,73.194 30.196,71.804 C28.806,70.414 27.951,69.020 27.312,67.376 C26.694,65.786 26.272,63.968 26.150,61.307 C26.029,58.641 26.000,57.790 26.000,51.000 C26.000,44.210 26.029,43.359 26.150,40.693 C26.272,38.032 26.694,36.214 27.312,34.624 C27.951,32.980 28.806,31.586 30.196,30.196 C31.586,28.806 32.980,27.951 34.624,27.312 C36.214,26.694 38.031,26.272 40.692,26.150 C43.359,26.029 44.210,26.000 51.000,26.000 C57.790,26.000 58.641,26.029 61.307,26.150 C63.969,26.272 65.786,26.694 67.376,27.312 C69.020,27.951 70.414,28.806 71.804,30.196 C73.194,31.586 74.049,32.980 74.687,34.624 C75.305,36.214 75.728,38.032 75.849,40.693 C75.971,43.359 76.000,44.210 76.000,51.000 C76.000,57.790 75.971,58.641 75.849,61.307 ZM71.350,40.898 C71.239,38.460 70.831,37.137 70.489,36.256 C70.035,35.089 69.493,34.256 68.619,33.381 C67.744,32.506 66.911,31.965 65.744,31.511 C64.863,31.169 63.539,30.761 61.102,30.650 C58.466,30.530 57.675,30.505 51.000,30.505 C44.325,30.505 43.534,30.530 40.898,30.650 C38.460,30.761 37.137,31.169 36.256,31.511 C35.089,31.965 34.256,32.506 33.381,33.381 C32.506,34.256 31.964,35.089 31.511,36.256 C31.169,37.137 30.761,38.460 30.650,40.898 C30.530,43.534 30.505,44.325 30.505,51.000 C30.505,57.675 30.530,58.466 30.650,61.102 C30.761,63.540 31.169,64.863 31.511,65.744 C31.964,66.911 32.506,67.744 33.381,68.619 C34.256,69.494 35.089,70.035 36.256,70.489 C37.137,70.831 38.460,71.239 40.898,71.350 C43.534,71.470 44.324,71.495 51.000,71.495 C57.676,71.495 58.466,71.470 61.102,71.350 C63.539,71.239 64.863,70.831 65.744,70.489 C66.911,70.035 67.744,69.494 68.619,68.619 C69.493,67.744 70.035,66.911 70.489,65.744 C70.831,64.863 71.239,63.540 71.350,61.102 C71.470,58.466 71.495,57.675 71.495,51.000 C71.495,44.325 71.470,43.534 71.350,40.898 ZM64.345,40.655 C62.688,40.655 61.345,39.312 61.345,37.655 C61.345,35.998 62.688,34.655 64.345,34.655 C66.002,34.655 67.345,35.998 67.345,37.655 C67.345,39.312 66.002,40.655 64.345,40.655 ZM51.000,63.838 C43.910,63.838 38.162,58.090 38.162,51.000 C38.162,43.910 43.910,38.162 51.000,38.162 C58.090,38.162 63.838,43.910 63.838,51.000 C63.838,58.090 58.090,63.838 51.000,63.838 ZM51.000,42.667 C46.398,42.667 42.667,46.398 42.667,51.000 C42.667,55.602 46.398,59.333 51.000,59.333 C55.602,59.333 59.333,55.602 59.333,51.000 C59.333,46.398 55.602,42.667 51.000,42.667 Z"/>
</symbol><symbol id="icon-medical" viewBox="0 0 46 46">
<path fill-rule="evenodd" d="M43.077,12.473 C43.010,12.666 42.901,12.882 42.720,13.095 C42.230,13.672 41.405,14.011 40.262,14.110 C40.189,14.245 40.089,14.390 39.948,14.528 C39.476,14.983 38.731,15.210 37.725,15.182 C37.372,15.595 36.639,16.125 35.224,16.048 C35.136,16.161 35.022,16.273 34.871,16.373 C34.250,16.785 33.330,16.799 32.063,16.413 C31.576,16.678 30.616,16.958 29.221,16.287 C26.994,16.303 26.433,16.645 25.890,16.976 C25.445,17.246 24.948,17.548 23.878,17.679 L23.801,22.493 C23.253,22.604 22.716,22.733 22.207,22.893 L22.122,17.679 C21.052,17.548 20.552,17.246 20.111,16.976 C19.568,16.645 19.006,16.303 16.779,16.287 C15.387,16.958 14.426,16.678 13.937,16.413 C12.667,16.799 11.749,16.785 11.129,16.373 C10.977,16.273 10.863,16.161 10.776,16.048 C9.365,16.125 8.625,15.595 8.275,15.182 C7.271,15.210 6.520,14.987 6.053,14.528 C5.909,14.390 5.811,14.247 5.738,14.110 C4.597,14.014 3.769,13.672 3.280,13.095 C3.099,12.879 2.990,12.666 2.923,12.473 C1.853,12.290 0.007,11.777 0.007,10.412 C0.007,9.289 1.355,9.081 3.807,8.710 C5.244,8.488 7.031,8.216 8.801,7.707 C10.331,7.268 11.564,6.562 12.755,5.884 C14.229,5.043 15.618,4.248 17.226,4.248 C18.769,4.248 20.622,5.237 21.931,6.091 L21.899,4.181 C21.230,3.793 20.781,3.068 20.781,2.234 C20.781,0.994 21.773,-0.010 22.997,-0.010 C24.221,-0.010 25.214,0.994 25.214,2.234 C25.214,3.068 24.764,3.793 24.096,4.181 L24.064,6.088 C25.374,5.234 27.225,4.245 28.770,4.245 C30.373,4.245 31.765,5.040 33.239,5.881 C34.428,6.560 35.661,7.265 37.193,7.705 C38.965,8.213 40.750,8.486 42.188,8.707 C44.639,9.081 45.987,9.289 45.987,10.412 C45.987,11.777 44.141,12.291 43.077,12.473 ZM21.952,7.748 C21.047,7.095 18.801,5.603 17.221,5.603 C15.968,5.603 14.783,6.280 13.410,7.063 C12.210,7.751 10.850,8.527 9.163,9.011 C7.311,9.544 5.477,9.824 4.003,10.050 C3.069,10.194 1.947,10.366 1.460,10.546 C1.769,10.786 2.647,11.088 3.572,11.193 L4.320,11.277 L4.168,11.939 C4.182,12.222 4.629,12.737 6.258,12.780 L7.064,12.802 L6.918,13.461 C6.971,13.604 7.348,13.906 8.562,13.812 L9.118,13.769 L9.237,14.240 C9.294,14.336 9.669,14.851 11.076,14.657 L11.776,14.561 L11.832,15.218 C11.904,15.309 12.401,15.509 13.817,15.029 L14.241,14.886 L14.496,15.180 C14.578,15.242 15.145,15.611 16.313,15.005 L16.457,14.930 L16.619,14.930 C19.350,14.930 20.118,15.398 20.799,15.813 C21.153,16.028 21.446,16.206 22.089,16.306 L21.952,7.748 ZM41.986,10.054 C40.512,9.827 38.678,9.547 36.826,9.014 C35.142,8.528 33.779,7.753 32.579,7.066 C31.206,6.282 30.022,5.607 28.770,5.607 C27.188,5.607 24.942,7.098 24.037,7.751 L23.899,16.309 C24.548,16.206 24.841,16.028 25.196,15.813 C25.877,15.398 26.645,14.930 29.375,14.930 L29.538,14.930 L29.679,15.005 C30.849,15.614 31.413,15.242 31.496,15.180 L31.783,14.849 L32.175,15.027 C33.590,15.506 34.088,15.306 34.160,15.215 L34.216,14.558 L34.915,14.654 C36.325,14.851 36.698,14.331 36.754,14.237 L36.892,13.703 L37.431,13.812 C38.647,13.906 39.021,13.604 39.075,13.461 L38.915,12.689 L39.735,12.780 C41.363,12.737 41.810,12.219 41.824,11.939 L41.659,11.209 L42.419,11.193 C43.343,11.088 44.217,10.786 44.529,10.546 C44.040,10.369 42.917,10.196 41.986,10.054 ZM16.393,18.324 C16.452,18.316 16.512,18.310 16.574,18.305 C17.612,17.836 20.778,18.768 20.778,19.711 C20.778,20.659 17.380,21.228 16.400,20.599 C15.725,20.761 15.496,21.119 15.496,21.286 C15.496,22.073 18.099,22.464 19.820,22.725 C20.466,22.825 21.121,22.924 21.760,23.043 C21.646,23.086 21.534,23.127 21.424,23.172 C20.294,23.639 19.570,24.255 19.118,24.891 C17.827,24.694 16.614,24.492 15.624,24.121 C13.687,23.393 13.279,22.181 13.279,21.289 C13.279,20.064 14.254,18.612 16.393,18.324 ZM21.659,23.749 C22.965,23.210 24.600,22.965 26.177,22.725 C27.899,22.466 30.502,22.073 30.502,21.286 C30.502,21.119 30.272,20.764 29.597,20.599 C28.617,21.230 25.219,20.659 25.219,19.711 C25.219,18.768 28.386,17.836 29.423,18.305 C29.482,18.313 29.546,18.316 29.605,18.324 C31.744,18.612 32.718,20.064 32.720,21.285 C32.720,22.175 32.313,23.391 30.376,24.115 C29.290,24.525 27.936,24.730 26.504,24.945 C23.396,25.413 21.196,25.855 21.196,27.248 C21.196,27.935 21.603,28.437 22.316,28.951 L22.274,26.618 C22.615,26.410 23.120,26.235 23.734,26.084 L23.697,28.149 C23.396,28.420 22.944,28.716 22.322,29.086 C22.245,29.131 22.167,29.177 22.085,29.225 C21.560,29.530 20.972,29.875 20.424,30.298 C19.600,29.560 18.980,28.606 18.980,27.248 C18.980,26.157 19.445,24.662 21.659,23.749 ZM23.612,32.409 L23.575,34.511 C23.300,34.796 22.962,35.069 22.766,35.230 L22.433,35.502 L22.300,35.610 C22.300,35.610 22.076,35.815 21.925,35.931 C21.808,36.019 21.677,36.119 21.529,36.234 C21.318,36.402 21.057,36.609 20.778,36.900 C19.988,36.183 19.131,35.167 19.131,33.781 C19.131,31.674 20.938,30.618 22.388,29.772 C23.889,28.894 24.799,28.288 24.799,27.254 C24.799,26.732 24.490,26.343 23.945,26.039 C24.716,25.861 25.631,25.710 26.587,25.567 C26.917,26.152 27.018,26.747 27.018,27.254 C27.018,29.659 25.065,30.798 23.497,31.715 C22.161,32.493 21.350,33.021 21.348,33.778 C21.348,34.287 21.752,34.783 22.428,35.370 L22.388,33.169 C22.678,32.929 23.096,32.667 23.580,32.382 C23.588,32.377 23.593,32.375 23.601,32.369 C23.604,32.367 23.607,32.364 23.612,32.361 C23.676,32.323 23.737,32.288 23.801,32.251 C24.357,31.927 24.985,31.558 25.567,31.106 C26.305,31.768 26.856,32.611 26.856,33.775 C26.856,35.532 25.485,36.692 24.610,37.401 C24.461,37.522 24.139,37.717 24.067,37.757 C23.778,37.926 23.370,38.124 22.957,38.338 C22.753,38.446 22.545,38.562 22.377,38.683 C22.207,38.807 22.087,38.923 22.020,39.034 C21.986,39.090 21.965,39.155 21.949,39.236 L21.946,39.268 C21.943,39.278 21.943,39.290 21.943,39.290 C21.940,39.295 21.940,39.302 21.938,39.308 C21.935,39.328 21.933,39.354 21.933,39.376 C21.931,39.424 21.933,39.470 21.940,39.521 C21.968,39.720 22.074,39.958 22.245,40.197 C22.327,40.313 22.420,40.429 22.521,40.548 L22.500,39.384 C22.500,39.384 22.625,39.268 22.731,39.192 C22.878,39.085 23.080,38.975 23.234,38.894 C23.322,38.847 23.407,38.805 23.493,38.761 L23.468,40.038 C23.306,40.265 23.088,40.505 22.896,40.710 L22.785,40.830 C22.785,40.833 22.782,40.836 22.779,40.839 C22.587,41.044 22.388,41.256 22.202,41.483 C22.170,41.519 22.140,41.558 22.111,41.596 C21.869,41.426 21.616,41.243 21.366,41.016 C21.082,40.755 20.789,40.421 20.605,39.977 C20.560,39.869 20.523,39.753 20.493,39.634 C20.477,39.572 20.466,39.516 20.456,39.454 L20.432,39.278 C20.411,39.031 20.435,38.767 20.501,38.519 C20.571,38.274 20.677,38.047 20.799,37.859 C20.922,37.668 21.052,37.509 21.183,37.372 C21.443,37.097 21.691,36.897 21.909,36.722 C22.348,36.382 22.670,36.148 22.867,35.976 C22.896,35.949 23.202,35.671 23.229,35.650 C24.102,34.936 24.639,34.370 24.639,33.781 C24.639,33.268 24.266,32.862 23.612,32.409 ZM22.444,41.682 C22.662,41.415 22.898,41.167 23.127,40.924 C23.356,40.682 23.575,40.440 23.742,40.200 C23.912,39.960 24.022,39.723 24.046,39.524 C24.054,39.473 24.056,39.424 24.054,39.379 C24.054,39.357 24.051,39.330 24.048,39.311 C24.046,39.306 24.046,39.298 24.043,39.292 C24.043,39.292 24.040,39.281 24.040,39.271 L24.037,39.238 C24.024,39.158 24.001,39.093 23.966,39.037 C23.902,38.931 23.787,38.818 23.626,38.699 C23.902,38.557 24.165,38.425 24.370,38.303 C24.440,38.263 24.506,38.226 24.562,38.190 L24.860,37.999 L24.924,37.953 C24.994,37.899 25.065,37.840 25.139,37.779 C25.155,37.805 25.174,37.832 25.192,37.859 C25.312,38.047 25.422,38.271 25.488,38.514 C25.557,38.761 25.578,39.026 25.557,39.273 L25.533,39.448 C25.523,39.513 25.511,39.570 25.496,39.629 C25.470,39.744 25.429,39.861 25.384,39.971 C25.200,40.416 24.911,40.749 24.623,41.011 C24.336,41.275 24.040,41.479 23.761,41.674 C23.485,41.867 23.218,42.045 22.984,42.228 C22.750,42.414 22.550,42.606 22.407,42.813 C22.266,43.017 22.186,43.244 22.167,43.470 C22.146,43.678 22.210,43.888 22.305,44.052 C22.393,44.209 22.502,44.330 22.601,44.427 L22.577,43.131 C22.601,43.085 22.627,43.036 22.659,42.991 C22.771,42.829 22.939,42.662 23.173,42.476 C23.194,42.458 23.218,42.441 23.242,42.422 C23.271,42.401 23.303,42.379 23.333,42.358 C23.367,42.334 23.402,42.306 23.439,42.279 L23.439,42.283 C23.556,42.197 23.679,42.113 23.806,42.023 C23.918,42.191 24.019,42.366 24.093,42.551 C24.221,42.867 24.264,43.201 24.221,43.489 C24.176,43.799 24.027,44.033 23.875,44.195 C23.721,44.359 23.564,44.464 23.434,44.543 C23.417,44.551 23.407,44.556 23.394,44.564 L23.375,45.620 C23.375,45.829 23.205,46.002 22.997,46.002 C22.790,46.002 22.619,45.829 22.619,45.620 L22.601,44.564 C22.587,44.556 22.574,44.551 22.561,44.543 C22.430,44.464 22.274,44.359 22.119,44.195 C21.968,44.033 21.816,43.799 21.773,43.489 C21.731,43.201 21.773,42.867 21.901,42.551 C22.028,42.233 22.228,41.945 22.444,41.682 ZM23.694,44.057 C23.787,43.893 23.854,43.683 23.833,43.475 C23.814,43.252 23.734,43.026 23.591,42.818 C23.543,42.749 23.487,42.681 23.428,42.616 L23.399,44.432 C23.497,44.335 23.607,44.212 23.694,44.057 Z"/>
</symbol><symbol id="icon-medium-chevron-right" viewBox="0 0 30 50">
 <g transform="translate(0 -1002.4)">
  <path d="m2.5383 1003.3 24.015 24.119-24.015 24.119" stroke-miterlimit="4.2" fill="none" stroke="#8d8d8d" stroke-width="2"/>
 </g>
</symbol><symbol id="icon-medium-star-o" viewBox="0 0 1407 1338">
  <path fill-rule="nonzero" d="M730 82l139 430 538 -1 -436 315 167 512 -435 -317 -434 317 167 -512 -436 -315 538 1 165 -512 27 82zm92 466l-119 -367 -124 387 -407 -1 329 238 -126 386 328 -239 329 239 -127 -386 330 -238 -407 1 -6 -20z"/>
</symbol><symbol id="icon-medium-star" viewBox="0 0 1407 1338">
  <polygon points="730,82 869,512 1407,511 971,826 1138,1338 703,1021 269,1338 436,826 0,511 538,512 703,0 "/>
</symbol><symbol id="icon-minus" viewBox="0 0 40 4">
<path fill-rule="evenodd" d="M-0.000,-0.000 L40.000,-0.000 L40.000,4.000 L-0.000,4.000 L-0.000,-0.000 Z"/>
</symbol><symbol id="icon-pick-up" viewBox="0 0 30.5 31.5">
<path fill-rule="evenodd" stroke-width="1px" stroke-linecap="butt" stroke-linejoin="miter" d="M21.620,19.133 L22.559,9.200 L24.884,9.200 L27.433,29.065 L20.681,29.065 L21.620,19.133 ZM1.959,29.065 L3.835,9.200 L8.385,9.200 L8.385,11.618 C8.385,11.847 8.572,12.032 8.803,12.032 C9.034,12.032 9.221,11.847 9.221,11.618 L9.221,9.200 L15.995,9.200 L15.995,11.618 C15.995,11.847 16.182,12.032 16.413,12.032 C16.644,12.032 16.832,11.847 16.832,11.618 L16.832,9.200 L21.715,9.200 L19.836,29.067 L1.959,29.067 L1.959,29.065 ZM9.224,5.342 C9.224,5.205 9.270,1.969 12.171,1.839 L13.044,1.839 C13.248,1.849 13.435,1.875 13.613,1.913 C12.537,2.879 12.192,4.396 12.192,5.342 L12.192,8.370 L9.225,8.370 L9.225,5.342 L9.224,5.342 ZM14.514,2.273 C15.962,3.189 15.997,5.232 15.999,5.340 L15.999,8.368 L13.030,8.368 L13.030,5.340 C13.030,5.234 13.063,3.189 14.514,2.273 ZM15.978,1.837 L16.851,1.837 C19.757,1.965 19.804,5.203 19.804,5.340 L19.804,8.368 L16.838,8.368 L16.838,5.340 C16.838,4.392 16.495,2.877 15.412,1.912 C15.586,1.875 15.773,1.846 15.978,1.837 ZM25.620,8.368 L20.640,8.368 L20.640,5.340 C20.640,3.899 19.856,1.137 16.869,1.005 L15.784,1.005 C15.727,1.005 15.671,1.016 15.621,1.038 C15.206,1.085 14.834,1.181 14.507,1.324 C14.095,1.145 13.617,1.028 13.063,1.003 L11.980,1.003 C11.922,1.003 11.866,1.015 11.816,1.036 C9.117,1.349 8.385,3.950 8.385,5.337 L8.385,8.364 L3.074,8.364 L1.039,29.897 L28.384,29.897 L25.620,8.368 Z"/>
</symbol><symbol id="icon-plus" viewBox="0 0 40 40">
<path fill-rule="evenodd" d="M40.000,22.000 L22.000,22.000 L22.000,40.000 L18.000,40.000 L18.000,22.000 L-0.000,22.000 L-0.000,18.000 L18.000,18.000 L18.000,0.000 L22.000,0.000 L22.000,18.000 L40.000,18.000 L40.000,22.000 Z"/>
</symbol><symbol id="icon-share" viewBox="0 0 80 70">
<path fill-rule="evenodd" d="M55.065,37.847 L55.065,26.967 C54.708,26.953 54.299,26.942 53.841,26.942 C39.541,26.942 34.028,35.001 32.018,39.807 L29.400,46.066 L28.708,39.309 C28.658,38.844 27.613,27.810 34.900,19.658 C39.474,14.539 46.235,11.770 55.012,11.412 L55.098,0.982 L79.996,19.214 L55.065,37.847 ZM58.438,14.844 L56.732,14.854 C48.140,14.897 41.657,17.297 37.468,21.982 C34.587,25.206 33.228,29.034 32.601,32.233 C39.195,24.446 49.228,23.463 53.841,23.463 C55.750,23.463 56.969,23.623 57.022,23.632 L58.526,23.832 L58.526,30.926 L74.154,19.242 L58.496,7.781 L58.438,14.844 ZM54.819,45.128 L58.283,45.128 L58.283,70.008 L0.002,70.008 L0.002,45.128 L3.463,45.128 L3.463,66.533 L54.819,66.533 L54.819,45.128 Z"/>
</symbol><symbol id="icon-small-chevron-right" viewBox="0 0 30 50">
 <g transform="translate(0 -1002.4)">
  <path d="m2.5383 1003.3 24.015 24.119-24.015 24.119" stroke-miterlimit="4.2" fill="none" stroke="#343434" stroke-width="10"/>
 </g>
</symbol><symbol id="icon-small-plus" viewBox="0 0 26 26">
<path fill-rule="evenodd" stroke-width="2px" stroke-linecap="butt" stroke-linejoin="miter" d="M24.000,13.656 L13.656,13.656 L13.656,24.000 L11.344,24.000 L11.344,13.656 L1.000,13.656 L1.000,11.344 L11.344,11.344 L11.344,1.000 L13.656,1.000 L13.656,11.344 L24.000,11.344 L24.000,13.656 Z"/>
</symbol><symbol id="icon-small-star-o" viewBox="0 0 1407 1338">
  <path fill-rule="nonzero" d="M730 82l139 430 538 -1 -436 315 167 512 -435 -317 -434 317 167 -512 -436 -315 538 1 165 -512 27 82zm92 466l-119 -367 -124 387 -407 -1 329 238 -126 386 328 -239 329 239 -127 -386 330 -238 -407 1 -6 -20z"/>
</symbol><symbol id="icon-small-star" viewBox="0 0 1407 1338">
  <polygon points="730,82 869,512 1407,511 971,826 1138,1338 703,1021 269,1338 436,826 0,511 538,512 703,0 "/>
</symbol><symbol id="icon-thumb-up" viewBox="0 0 154.5 154.5">
<path fill-rule="evenodd" d="M104.580,80.312 L89.842,80.312 C88.484,80.312 87.380,79.211 87.380,77.858 C87.380,76.504 88.484,75.403 89.842,75.403 L104.580,75.403 C105.938,75.403 107.042,76.504 107.042,77.858 C107.042,79.211 105.938,80.312 104.580,80.312 ZM102.119,87.675 L92.304,87.675 C90.946,87.675 89.842,86.576 89.842,85.222 C89.842,83.868 90.946,82.767 92.304,82.767 L102.119,82.767 C103.476,82.767 104.580,83.868 104.580,85.222 C104.580,86.576 103.476,87.675 102.119,87.675 ZM99.657,95.040 L94.766,95.040 C93.408,95.040 92.304,93.940 92.304,92.586 C92.304,91.231 93.408,90.131 94.766,90.131 L99.657,90.131 C101.015,90.131 102.119,91.231 102.119,92.586 C102.119,93.940 101.015,95.040 99.657,95.040 ZM71.148,90.622 C70.914,90.315 70.554,90.131 70.164,90.131 L60.268,90.131 L60.268,70.493 L68.884,70.493 C72.593,70.493 76.387,68.432 80.832,63.997 C82.014,62.818 83.553,61.591 85.038,60.404 C86.577,59.178 88.168,57.905 89.448,56.633 C93.453,52.640 95.857,47.931 96.734,46.029 C99.024,46.540 99.657,49.318 99.657,50.856 C99.657,54.432 97.376,56.534 95.171,58.568 C94.717,58.989 94.273,59.398 93.863,59.807 C91.648,62.016 90.150,64.455 89.866,66.235 C88.374,67.078 87.347,68.660 87.347,70.493 C87.347,71.517 87.664,72.465 88.201,73.251 C86.297,73.931 84.918,75.730 84.918,77.858 C84.918,79.997 86.305,81.801 88.225,82.473 C87.696,83.258 87.380,84.203 87.380,85.222 C87.380,87.361 88.768,89.165 90.688,89.836 C90.158,90.622 89.842,91.566 89.842,92.586 C89.842,93.485 90.105,94.316 90.527,95.040 L79.962,95.040 C76.482,95.040 73.270,93.429 71.148,90.622 ZM57.805,95.040 L47.958,95.040 L47.958,65.584 L57.805,65.584 L57.805,95.040 ZM104.580,70.493 C104.580,71.847 103.476,72.948 102.119,72.948 L92.270,72.948 C90.913,72.948 89.809,71.847 89.809,70.493 C89.809,69.139 90.913,68.038 92.270,68.038 L102.119,68.038 C103.476,68.038 104.580,69.139 104.580,70.493 ZM109.504,77.858 C109.504,75.718 108.116,73.914 106.196,73.242 C106.730,72.457 107.042,71.512 107.042,70.493 C107.042,67.785 104.834,65.584 102.119,65.584 L92.640,65.584 C93.092,64.582 93.999,63.146 95.607,61.542 C95.996,61.153 96.415,60.769 96.846,60.368 C99.192,58.204 102.119,55.508 102.119,50.856 C102.119,47.194 100.005,43.492 95.964,43.492 C95.459,43.492 95.008,43.795 94.818,44.265 C94.794,44.323 92.399,50.222 87.709,54.899 C86.527,56.077 84.988,57.303 83.499,58.490 C81.960,59.717 80.367,60.990 79.088,62.262 C75.195,66.149 71.854,68.038 68.884,68.038 L60.268,68.038 L60.268,65.584 C60.268,64.230 59.164,63.129 57.805,63.129 L47.958,63.129 C46.600,63.129 45.497,64.230 45.497,65.584 L45.497,95.040 C45.497,96.395 46.600,97.495 47.958,97.495 L57.805,97.495 C59.164,97.495 60.268,96.395 60.268,95.040 L60.268,92.586 L69.569,92.586 C72.154,95.715 75.908,97.495 79.962,97.495 L99.657,97.495 C102.373,97.495 104.580,95.294 104.580,92.586 C104.580,91.566 104.268,90.622 103.735,89.836 C105.655,89.165 107.042,87.361 107.042,85.222 C107.042,84.203 106.730,83.258 106.196,82.473 C108.116,81.801 109.504,79.997 109.504,77.858 Z"/>
</symbol><symbol id="icon-tiny-plus" viewBox="0 0 18 18">
<path fill-rule="evenodd" d="M17.003,9.234 L9.239,9.234 L9.239,16.992 L7.767,16.992 L7.767,9.234 L0.005,9.234 L0.005,7.763 L7.767,7.763 L7.767,0.005 L9.239,0.005 L9.239,7.763 L17.003,7.763 L17.003,9.234 Z"/>
</symbol><symbol id="icon-tiny-tick" viewBox="0 0 18 14">
<path fill-rule="evenodd" d="M18.009,1.757 L6.389,13.998 L-0.006,7.494 L1.727,5.731 L6.181,10.263 L16.275,-0.006 L18.009,1.757 Z"/>
</symbol><symbol id="icon-twitter" viewBox="0 0 100 100">
<path fill-rule="evenodd" fill="rgb(95, 169, 221)" d="M-0.000,0.000 L100.000,0.000 L100.000,100.000 L-0.000,100.000 L-0.000,0.000 Z"/>
<path fill-rule="evenodd" fill="rgb(255, 255, 255)" d="M74.998,34.853 L74.998,34.853 L74.998,34.853 M59.616,30.000 C53.950,30.000 49.357,34.634 49.357,40.350 C49.357,41.162 49.448,41.951 49.623,42.709 C41.097,42.277 33.538,38.156 28.479,31.894 C27.596,33.423 27.090,35.201 27.090,37.098 C27.090,40.689 28.901,43.857 31.653,45.713 C29.972,45.660 28.390,45.194 27.007,44.419 C27.006,44.462 27.006,44.505 27.006,44.549 C27.006,49.564 30.542,53.747 35.235,54.698 C34.374,54.935 33.468,55.061 32.532,55.061 C31.871,55.061 31.229,54.996 30.603,54.875 C31.908,58.988 35.696,61.980 40.185,62.064 C36.674,64.840 32.251,66.494 27.445,66.494 C26.617,66.494 25.801,66.445 24.998,66.350 C29.538,69.287 34.930,71.000 40.723,71.000 C59.592,71.000 69.910,55.228 69.910,41.550 C69.910,41.102 69.900,40.655 69.880,40.211 C71.884,38.752 73.623,36.929 74.998,34.853 C73.159,35.677 71.182,36.233 69.107,36.483 C71.225,35.202 72.851,33.174 73.617,30.757 C71.635,31.943 69.440,32.804 67.103,33.268 C65.232,31.257 62.566,30.000 59.616,30.000 "/>
</symbol></svg>