<svg xmlns="http://www.w3.org/2000/svg" width="79.22" height="79" viewBox="0 0 79.22 79">
  <path d="M1935.82,3614.12c10.58,0,11.83.04,16.01,0.23a21.786,21.786,0,0,1,7.35,1.36,13.049,13.049,0,0,1,7.52,7.49,21.828,21.828,0,0,1,1.36,7.34c0.19,4.16.23,5.41,0.23,15.96s-0.04,11.8-.23,15.96a21.828,21.828,0,0,1-1.36,7.34,13.049,13.049,0,0,1-7.52,7.49,21.786,21.786,0,0,1-7.35,1.36c-4.18.19-5.43,0.23-16.01,0.23s-11.83-.04-16-0.23a21.92,21.92,0,0,1-7.36-1.36,13.07,13.07,0,0,1-7.51-7.49,21.759,21.759,0,0,1-1.37-7.34c-0.19-4.16-.23-5.41-0.23-15.96s0.04-11.8.23-15.96a21.759,21.759,0,0,1,1.37-7.34,13.07,13.07,0,0,1,7.51-7.49,21.92,21.92,0,0,1,7.36-1.36c4.18-.19,5.43-0.23,16-0.23m0-7.12c-10.75,0-12.1.05-16.33,0.24a29.284,29.284,0,0,0-9.61,1.83,20.184,20.184,0,0,0-11.58,11.56,29.027,29.027,0,0,0-1.85,9.58c-0.19,4.22-.23,5.56-0.23,16.29s0.04,12.07.23,16.29a29.027,29.027,0,0,0,1.85,9.58,20.184,20.184,0,0,0,11.58,11.56,29.284,29.284,0,0,0,9.61,1.83c4.23,0.19,5.58.24,16.33,0.24s12.11-.05,16.33-0.24a29.3,29.3,0,0,0,9.62-1.83,20.26,20.26,0,0,0,11.58-11.56,28.8,28.8,0,0,0,1.84-9.58c0.2-4.22.24-5.56,0.24-16.29s-0.04-12.07-.24-16.29a28.8,28.8,0,0,0-1.84-9.58,20.26,20.26,0,0,0-11.58-11.56,29.3,29.3,0,0,0-9.62-1.83c-4.22-.19-5.57-0.24-16.33-0.24h0Zm0,19.22a20.28,20.28,0,1,0,20.34,20.28A20.313,20.313,0,0,0,1935.82,3626.22Zm0,33.45a13.17,13.17,0,1,1,13.21-13.17A13.187,13.187,0,0,1,1935.82,3659.67Zm25.9-34.25a4.755,4.755,0,1,1-4.75-4.74A4.752,4.752,0,0,1,1961.72,3625.42Z" transform="translate(-1896.22 -3607)"/>
</svg>
