<svg xmlns="http://www.w3.org/2000/svg" width="60" height="60" viewBox="0 0 60 60">
  <path d="M1551.17,3643.4h8.33c1.5,6,4.12,11.02,7.42,14.32A27,27,0,0,1,1551.17,3643.4Zm15.68-37.2c-3.3,3.3-5.93,8.32-7.43,14.32h-8.25A27.6,27.6,0,0,1,1566.85,3606.2Zm36.45,27.07a1.82,1.82,0,0,1-.07.61,1.2,1.2,0,0,1-.08.52c0,0.3-.07.6-0.07,0.9v0.07a27.2,27.2,0,0,1-1.28,5.4h-8.7a47.581,47.581,0,0,0,.75-8.77,54.68,54.68,0,0,0-.75-8.78h8.77a27.12,27.12,0,0,1,1.28,5.4v0.08a3.863,3.863,0,0,1,.07.89,1.225,1.225,0,0,0,.08.53,1.791,1.791,0,0,0,.07.6v1.27A7.789,7.789,0,0,1,1603.3,3633.27Zm-28.65,10.13v15.82c-5.55-.82-10.28-7.12-12.53-15.82h12.53Zm0-38.63v15.83h-12.53C1564.37,3611.82,1569.1,3605.6,1574.65,3604.77Zm2.7,15.83v-15.83c5.55,0.83,10.27,7.13,12.52,15.83h-12.52Zm12.52,22.8c-2.25,8.7-6.97,15-12.52,15.82V3643.4h12.52Zm1.43-11.4a47.475,47.475,0,0,1-.82,8.77h-13.13v-17.54h13.13A47.475,47.475,0,0,1,1591.3,3632Zm-5.48-25.57a2.249,2.249,0,0,1,.68.3c0.15,0.07.37,0.15,0.52,0.22,0.23,0.08.45,0.23,0.68,0.3,0.15,0.08.37,0.15,0.52,0.23,0.23,0.07.45,0.23,0.68,0.3a4.621,4.621,0,0,1,.52.3,3.916,3.916,0,0,1,.6.38,4,4,0,0,0,.53.3c0.22,0.15.37,0.22,0.6,0.37,0.15,0.08.3,0.23,0.45,0.3,0.22,0.15.37,0.3,0.6,0.45,0.15,0.15.3,0.23,0.45,0.38,0.22,0.15.37,0.3,0.6,0.45,0.15,0.15.3,0.22,0.45,0.37s0.37,0.3.52,0.45,0.3,0.23.45,0.38a2.837,2.837,0,0,1,.52.52,2.039,2.039,0,0,0,.45.37,3.311,3.311,0,0,0,.53.53,1.835,1.835,0,0,1,.37.45c0.15,0.15.3,0.37,0.45,0.52s0.23,0.3.38,0.45,0.3,0.37.45,0.52,0.22,0.3.37,0.45a3.129,3.129,0,0,1,.38.6c0.07,0.15.22,0.3,0.3,0.45,0.15,0.23.22,0.38,0.37,0.61a2.463,2.463,0,0,1,.3.52c0.15,0.22.23,0.37,0.38,0.6,0.07,0.15.22,0.38,0.3,0.52a3.344,3.344,0,0,0,.3.6,1.785,1.785,0,0,0,.3.53,1.362,1.362,0,0,1,.15.3h-8.4c-1.5-6-4.12-11.02-7.42-14.33a0.153,0.153,0,0,1,.15.08A0.682,0.682,0,0,0,1585.82,3606.43ZM1560.7,3632a47.475,47.475,0,0,1,.82-8.77h13.13v17.55h-13.13A47.667,47.667,0,0,1,1560.7,3632Zm-11.85,3.45v-0.23c0-.3-0.08-0.52-0.08-0.82a1.734,1.734,0,0,0-.07-0.6v-3.75a1.734,1.734,0,0,1,.07-0.6c0-.31.08-0.61,0.08-0.83v-0.15a27.8,27.8,0,0,1,1.27-5.4h8.77a47.691,47.691,0,0,0-.75,8.78,55.722,55.722,0,0,0,.75,8.77h-8.77A22.358,22.358,0,0,1,1548.85,3635.45Zm51.6,8.78c-0.08.22-.23,0.45-0.3,0.67-0.08.15-.23,0.38-0.3,0.53a4.479,4.479,0,0,1-.38.6,4.539,4.539,0,0,0-.3.52c-0.15.23-.23,0.38-0.37,0.6-0.08.15-.23,0.3-0.3,0.45-0.15.23-.31,0.38-0.45,0.6-0.15.15-.23,0.3-0.38,0.45-0.15.23-.3,0.38-0.45,0.6-0.15.15-.22,0.3-0.37,0.45s-0.3.38-.45,0.53-0.23.3-.38,0.45a4.243,4.243,0,0,1-.52.52c-0.15.15-.3,0.3-0.38,0.37a4.381,4.381,0,0,0-.52.53c-0.15.15-.3,0.22-0.45,0.37s-0.37.3-.52,0.45-0.3.23-.45,0.38c-0.23.15-.38,0.3-0.6,0.45-0.15.14-.3,0.22-0.45,0.37-0.23.15-.38,0.3-0.6,0.45-0.15.07-.3,0.23-0.45,0.3-0.23.15-.45,0.3-0.6,0.38s-0.31.22-.45,0.3c-0.23.15-.45,0.22-0.68,0.37a4.621,4.621,0,0,0-.52.3c-0.23.15-.45,0.23-0.68,0.38a3.873,3.873,0,0,1-.52.22c-0.23.08-.45,0.23-0.68,0.3a3.784,3.784,0,0,1-.52.23c-0.23.08-.45,0.23-0.68,0.3-0.15.08-.37,0.15-0.52,0.23a0.147,0.147,0,0,0-.15.07c3.3-3.3,5.93-8.32,7.43-14.32h8.32a1.362,1.362,0,0,0-.15.3A0.44,0.44,0,0,0,1600.45,3644.23Zm5.48-9.91c0-.3.07-0.6,0.07-0.89v-2.86c0-.3-0.07-0.6-0.07-0.89v-0.45a30.018,30.018,0,0,0-59.63-1.28v0.07c-0.08.38-.08,0.75-0.15,1.2a1.225,1.225,0,0,1-.08.53c0,0.3-.07.52-0.07,0.82v2.85a3.329,3.329,0,0,0,.07.83,1.2,1.2,0,0,0,.08.52,5.383,5.383,0,0,0,.15,1.12v0.15a29.973,29.973,0,0,0,59.55-1.27C1605.85,3634.62,1605.93,3634.48,1605.93,3634.32Z" transform="translate(-1546 -3602)"/>
</svg>
