<svg xmlns="http://www.w3.org/2000/svg" width="69.94" height="70.03" viewBox="0 0 69.94 70.03">
  <path d="M1146.24,3606.66a50.8,50.8,0,0,0-1.54,6.15l-0.19.56c-0.95,3.54-2.68,16.39,11.1,31.84,13.76,15.65,29.06,17.88,36.91,17.88h2.68c0.57,0,2.67-1.11,7.64-4.66a2.267,2.267,0,0,0,.96-0.93l1.53-2.42a3.213,3.213,0,0,0,.19-2.98,2.629,2.629,0,0,0-2.29-1.86l-10.89-2.61a4.377,4.377,0,0,0-2.68.37l-2.68,1.68a7.911,7.911,0,0,1-7.07.56,12.564,12.564,0,0,1-1.91-.75c-2.49-.74-5.74-1.68-10.9-6.33-8.6-7.82-12.24-14.9-11.09-21.23a9.225,9.225,0,0,1,2.49-4.66l0.19-.18,3.24-1.68c-0.19-2.23-2.1-9.13-3.82-14.72a4.057,4.057,0,0,0-.96-0.18,26.453,26.453,0,0,0-6.11,1.11A42.5,42.5,0,0,0,1146.24,3606.66Zm46.27,60.34c-8.61,0-25.05-2.42-39.97-19.19-14.92-16.94-12.81-31.09-11.85-35.2l0.19-.56c1.33-6.33,1.72-7.08,2.1-7.63,1.33-1.68,4.78-5.77,6.69-6.15a33.138,33.138,0,0,1,7.27-1.3c3.45,0,4.41,1.68,4.59,2.61,5.55,16.76,4.21,17.87,3.25,18.62l-3.82,1.86a6.592,6.592,0,0,0-1.15,2.61c-0.96,5.03,2.49,10.99,9.94,17.88,4.4,4.09,7.07,4.84,9.37,5.4a16.729,16.729,0,0,1,2.68.93,3.367,3.367,0,0,0,3.25-.18l2.68-1.68a7,7,0,0,1,5.73-.93l10.9,2.61a7.319,7.319,0,0,1,4.97,4.09,6.835,6.835,0,0,1-.38,6.34l-1.53,2.42a9.842,9.842,0,0,1-1.92,2.05c-7.27,5.22-8.98,5.22-9.56,5.22A23.015,23.015,0,0,1,1192.51,3667Z" transform="translate(-1140 -3596.97)"/>
</svg>
