<svg xmlns="http://www.w3.org/2000/svg" width="86.28" height="69.62" viewBox="0 0 86.28 69.62">
  <path d="M2133,3619.93h0m-26.54-8.24a17.623,17.623,0,0,0-17.25,21.58,50.362,50.362,0,0,1-36.48-18.36,17.5,17.5,0,0,0,5.48,23.46,17.694,17.694,0,0,1-8.02-2.2v0.23a17.622,17.622,0,0,0,14.2,17.23,17.937,17.937,0,0,1-4.66.61,18.168,18.168,0,0,1-3.33-.31,17.686,17.686,0,0,0,16.53,12.2,35.645,35.645,0,0,1-21.98,7.53,36.647,36.647,0,0,1-4.22-.25,50.3,50.3,0,0,0,27.13,7.9c32.56,0,50.36-26.78,50.36-50.01,0-.76-0.02-1.52-0.05-2.27a35.7,35.7,0,0,0,8.83-9.1,35.354,35.354,0,0,1-10.17,2.77,17.622,17.622,0,0,0,7.79-9.72,35.743,35.743,0,0,1-11.24,4.26,17.762,17.762,0,0,0-12.92-5.55" transform="translate(-2046.72 -3611.69)"/>
</svg>
