<svg
 xmlns="http://www.w3.org/2000/svg"
 xmlns:xlink="http://www.w3.org/1999/xlink"
 viewBox="0 0 46 34" width="23" height="17">
<path fill-rule="evenodd"
 d="M42.170,34.000 L3.844,34.000 C1.730,34.000 0.011,32.267 0.011,30.137 L0.011,3.869 C0.011,1.740 1.730,0.006 3.844,0.006 L42.170,0.006 C44.283,0.006 46.004,1.740 46.004,3.869 L46.004,30.137 C46.004,32.267 44.283,34.000 42.170,34.000 ZM44.470,3.869 C44.470,2.592 43.438,1.551 42.170,1.551 L3.844,1.551 C2.577,1.551 1.544,2.592 1.544,3.869 L1.544,4.642 L44.470,4.642 L44.470,3.869 ZM44.470,6.187 L1.544,6.187 L1.544,10.822 L44.470,10.822 L44.470,6.187 ZM44.470,12.367 L1.544,12.367 L1.544,30.137 C1.544,31.414 2.577,32.455 3.844,32.455 L42.170,32.455 C43.438,32.455 44.470,31.414 44.470,30.137 L44.470,12.367 ZM40.638,29.365 L26.840,29.365 C26.416,29.365 26.073,29.019 26.073,28.591 L26.073,20.865 C26.073,20.439 26.416,20.093 26.840,20.093 L40.638,20.093 C41.062,20.093 41.404,20.439 41.404,20.865 L41.404,28.591 C41.404,29.019 41.062,29.365 40.638,29.365 ZM39.871,21.638 L27.607,21.638 L27.607,27.819 L39.871,27.819 L39.871,21.638 ZM21.474,20.865 L19.175,20.865 C18.751,20.865 18.408,20.520 18.408,20.093 C18.408,19.667 18.751,19.320 19.175,19.320 L21.474,19.320 C21.898,19.320 22.241,19.667 22.241,20.093 C22.241,20.520 21.898,20.865 21.474,20.865 ZM21.474,17.776 L14.585,17.776 C14.161,17.776 13.818,17.430 13.818,17.003 C13.818,16.575 14.161,16.230 14.585,16.230 L21.474,16.230 C21.898,16.230 22.241,16.575 22.241,17.003 C22.241,17.430 21.898,17.776 21.474,17.776 ZM11.499,17.776 L4.610,17.776 C4.186,17.776 3.844,17.430 3.844,17.003 C3.844,16.575 4.186,16.230 4.610,16.230 L11.499,16.230 C11.923,16.230 12.266,16.575 12.266,17.003 C12.266,17.430 11.923,17.776 11.499,17.776 ZM4.610,19.320 L16.108,19.320 C16.532,19.320 16.875,19.667 16.875,20.093 C16.875,20.520 16.532,20.865 16.108,20.865 L4.610,20.865 C4.186,20.865 3.844,20.520 3.844,20.093 C3.844,19.667 4.186,19.320 4.610,19.320 Z"/>
</svg>
