<svg
 xmlns="http://www.w3.org/2000/svg"
 xmlns:xlink="http://www.w3.org/1999/xlink"
 viewBox="0 0 50 45" width="25" height="22.5">
<path fill-rule="evenodd"
 d="M49.343,38.107 L32.164,44.824 C32.032,44.890 31.902,44.890 31.770,44.890 C31.747,44.890 31.726,44.880 31.703,44.879 C31.661,44.886 31.616,44.890 31.572,44.890 C31.440,44.890 31.310,44.890 31.178,44.824 L16.107,38.037 C15.777,37.902 15.514,37.499 15.514,37.096 L15.708,16.027 C15.670,15.909 15.644,15.787 15.644,15.662 C15.644,15.258 15.906,14.921 16.301,14.720 L32.955,8.137 C33.217,8.071 33.482,8.071 33.679,8.137 L49.145,14.789 C49.355,14.861 49.504,15.009 49.602,15.191 C49.722,15.348 49.802,15.526 49.802,15.734 L50.000,37.165 C50.000,37.569 49.738,37.972 49.343,38.107 ZM17.554,36.491 L30.650,42.336 L30.700,34.989 L30.592,23.124 L19.624,18.142 L17.686,17.277 L17.554,36.491 ZM25.661,13.173 L19.198,15.731 L19.603,15.915 L31.692,21.327 L37.822,18.921 L25.976,13.381 C25.851,13.334 25.747,13.260 25.661,13.173 ZM33.285,10.156 L28.156,12.185 L40.196,17.815 C40.261,17.840 40.306,17.888 40.360,17.925 L46.118,15.664 L33.285,10.156 ZM47.763,17.208 L37.842,21.067 L32.687,23.083 L32.626,29.627 L32.757,42.406 L47.961,36.425 L47.763,17.208 ZM26.043,8.005 C25.911,8.005 25.781,8.005 25.649,7.939 L13.737,2.229 C13.277,1.961 13.012,1.423 13.277,0.884 C13.540,0.416 14.068,0.144 14.595,0.416 L26.507,6.125 C26.966,6.393 27.232,6.931 26.966,7.470 C26.769,7.804 26.439,8.005 26.043,8.005 ZM20.382,9.684 C20.253,10.021 19.858,10.222 19.463,10.222 C19.331,10.222 19.201,10.222 19.069,10.156 L7.154,4.443 C6.694,4.176 6.428,3.637 6.694,3.099 C6.956,2.629 7.483,2.358 8.011,2.629 L19.923,8.339 C20.382,8.607 20.648,9.146 20.382,9.684 ZM13.867,11.901 C13.670,12.238 13.274,12.439 12.947,12.439 C12.815,12.439 12.685,12.439 12.552,12.373 L0.637,6.660 C0.178,6.393 -0.087,5.854 0.178,5.316 C0.440,4.847 0.968,4.575 1.496,4.847 L13.408,10.556 C13.867,10.824 14.132,11.363 13.867,11.901 ZM1.496,11.564 L13.342,17.208 C13.802,17.475 14.068,18.014 13.802,18.552 C13.670,18.955 13.274,19.157 12.947,19.157 C12.815,19.157 12.685,19.157 12.552,19.091 L0.637,13.378 C0.178,13.111 -0.087,12.572 0.178,12.033 C0.440,11.564 0.968,11.293 1.496,11.564 ZM1.496,18.216 L13.342,23.928 C13.802,24.196 14.068,24.735 13.802,25.273 C13.670,25.673 13.274,25.875 12.947,25.875 C12.815,25.875 12.685,25.875 12.552,25.809 L0.637,20.029 C0.178,19.762 -0.087,19.223 0.178,18.685 C0.440,18.216 0.968,17.944 1.496,18.216 Z"/>
</svg>
