<svg
 xmlns="http://www.w3.org/2000/svg"
 xmlns:xlink="http://www.w3.org/1999/xlink"
 viewBox="0 0 100 100"
 width="50" height="50">
<path fill-rule="evenodd"  fill="rgb(59, 89, 152)"
 d="M-0.000,0.000 L100.000,0.000 L100.000,100.000 L-0.000,100.000 L-0.000,0.000 Z"/>
<path fill-rule="evenodd"  fill="rgb(255, 255, 255)"
 d="M72.242,25.000 L27.757,25.000 C26.232,25.000 24.999,26.234 24.999,27.758 L24.999,72.242 C24.999,73.766 26.232,75.000 27.757,75.000 L52.085,75.000 L52.085,55.545 L45.139,55.545 L45.139,48.605 L52.087,48.605 L52.087,42.200 C52.087,35.742 55.901,31.935 61.663,31.935 C64.422,31.935 66.676,32.232 67.367,32.323 L67.367,39.577 L62.728,39.576 C59.595,39.576 59.010,41.130 59.010,43.315 L59.010,48.605 L67.037,48.605 L65.903,55.545 L59.010,55.545 L59.010,75.000 L72.242,75.000 C73.766,75.000 75.000,73.766 75.000,72.242 L75.000,27.758 C75.000,26.234 73.766,25.000 72.242,25.000 Z"/>
</svg>
