<svg
 xmlns="http://www.w3.org/2000/svg"
 xmlns:xlink="http://www.w3.org/1999/xlink"
 viewBox="0 0 100 100"
 width="50" height="50">
<path fill-rule="evenodd"  fill="rgb(219, 78, 63)"
 d="M0.000,0.000 L100.000,0.000 L100.000,100.000 L0.000,100.000 L0.000,0.000 Z"/>
<path fill-rule="evenodd"  fill="rgb(255, 255, 255)"
 d="M70.455,52.286 L70.455,56.857 L65.909,56.857 L65.909,52.286 L61.364,52.286 L61.364,47.714 L65.909,47.714 L65.909,43.143 L70.455,43.143 L70.455,47.714 L75.000,47.714 L75.000,52.286 L70.455,52.286 ZM40.909,66.000 C32.114,66.000 25.000,58.846 25.000,50.000 C25.000,41.154 32.114,34.000 40.909,34.000 C45.205,34.000 48.795,35.577 51.568,38.183 L47.250,42.366 C46.068,41.223 44.000,39.897 40.909,39.897 C35.477,39.897 31.045,44.423 31.045,50.000 C31.045,55.577 35.477,60.103 40.909,60.103 C47.204,60.103 49.568,55.554 49.932,53.200 L40.909,53.200 L40.909,47.714 L55.932,47.714 C56.068,48.514 56.182,49.314 56.182,50.366 C56.182,59.509 50.091,66.000 40.909,66.000 Z"/>
</svg>
