<svg
 xmlns="http://www.w3.org/2000/svg"
 xmlns:xlink="http://www.w3.org/1999/xlink"
 viewBox="0 0 73 65" width="36.5" height="32.5">
<path fill-rule="evenodd"
 d="M67.111,34.933 L41.132,62.972 C39.905,64.288 38.262,65.020 36.492,65.020 C34.727,65.020 33.078,64.294 31.852,62.972 L5.860,34.921 C2.072,31.060 -0.012,25.962 -0.012,20.573 C-0.012,9.224 9.299,-0.009 20.746,-0.009 C26.844,-0.009 32.565,2.626 36.492,7.147 C40.413,2.626 46.123,-0.009 52.237,-0.009 C63.685,-0.009 73.001,9.218 73.001,20.573 C73.001,25.968 70.911,31.070 67.111,34.933 ZM52.230,3.842 C46.520,3.842 41.246,6.673 38.111,11.410 C37.747,11.962 37.151,12.303 36.467,12.284 C35.803,12.280 35.193,11.944 34.837,11.387 L34.716,11.196 C31.567,6.596 26.342,3.848 20.741,3.848 C11.443,3.848 3.879,11.351 3.879,20.567 C3.879,24.963 5.583,29.107 8.683,32.251 C8.706,32.275 8.731,32.304 8.754,32.329 L34.721,60.348 C35.205,60.864 35.827,61.152 36.492,61.152 C37.157,61.152 37.785,60.864 38.262,60.348 L64.253,32.292 C64.271,32.280 64.284,32.263 64.301,32.251 C67.400,29.112 69.105,24.963 69.092,20.561 C69.092,11.338 61.529,3.842 52.230,3.842 ZM21.376,12.303 C16.427,12.303 12.404,16.292 12.404,21.196 C12.404,22.261 11.527,23.131 10.459,23.131 C9.383,23.131 8.506,22.261 8.506,21.196 C8.506,14.159 14.277,8.435 21.376,8.435 C22.451,8.435 23.327,9.302 23.327,10.368 C23.327,11.435 22.451,12.303 21.376,12.303 Z"/>
</svg>
