<svg
 xmlns="http://www.w3.org/2000/svg"
 xmlns:xlink="http://www.w3.org/1999/xlink"
  viewBox="0 0 73 65" width="36.5" height="32.5">
<path fill-rule="evenodd"
 d="M67.111,34.934 L41.132,62.972 C39.905,64.289 38.263,65.020 36.491,65.020 C34.727,65.020 33.078,64.295 31.852,62.972 L5.860,34.922 C2.072,31.059 -0.012,25.962 -0.012,20.574 C-0.012,9.224 9.299,-0.009 20.747,-0.009 C26.844,-0.009 32.565,2.626 36.491,7.147 C40.412,2.626 46.123,-0.009 52.237,-0.009 C63.685,-0.009 73.000,9.218 73.000,20.574 C73.000,25.968 70.911,31.070 67.111,34.934 ZM21.376,8.435 C14.277,8.435 8.507,14.160 8.507,21.196 C8.507,22.261 9.383,23.131 10.458,23.131 C11.527,23.131 12.404,22.261 12.404,21.196 C12.404,16.292 16.427,12.303 21.376,12.303 C22.451,12.303 23.327,11.435 23.327,10.368 C23.327,9.302 22.451,8.435 21.376,8.435 Z"/>
</svg>
