<svg
 xmlns="http://www.w3.org/2000/svg"
 xmlns:xlink="http://www.w3.org/1999/xlink"
 viewBox="0 0 103 103"
 width="51.5" height="51.5">
<path fill-rule="evenodd"  stroke="rgb(52, 52, 52)" stroke-width="2px" stroke-linecap="butt" stroke-linejoin="miter" fill="rgb(255, 255, 255)"
 d="M1.000,1.000 L101.000,1.000 L101.000,101.000 L1.000,101.000 L1.000,1.000 Z"/>
<path fill-rule="evenodd"  fill="rgb(52, 52, 52)"
 d="M75.849,61.307 C75.728,63.968 75.305,65.786 74.687,67.376 C74.049,69.020 73.194,70.414 71.804,71.804 C70.414,73.194 69.020,74.049 67.376,74.688 C65.786,75.306 63.969,75.728 61.307,75.850 C58.641,75.971 57.790,76.000 51.000,76.000 C44.210,76.000 43.359,75.971 40.692,75.850 C38.031,75.728 36.214,75.306 34.624,74.688 C32.980,74.049 31.586,73.194 30.196,71.804 C28.806,70.414 27.951,69.020 27.312,67.376 C26.694,65.786 26.272,63.968 26.150,61.307 C26.029,58.641 26.000,57.790 26.000,51.000 C26.000,44.210 26.029,43.359 26.150,40.693 C26.272,38.032 26.694,36.214 27.312,34.624 C27.951,32.980 28.806,31.586 30.196,30.196 C31.586,28.806 32.980,27.951 34.624,27.312 C36.214,26.694 38.031,26.272 40.692,26.150 C43.359,26.029 44.210,26.000 51.000,26.000 C57.790,26.000 58.641,26.029 61.307,26.150 C63.969,26.272 65.786,26.694 67.376,27.312 C69.020,27.951 70.414,28.806 71.804,30.196 C73.194,31.586 74.049,32.980 74.687,34.624 C75.305,36.214 75.728,38.032 75.849,40.693 C75.971,43.359 76.000,44.210 76.000,51.000 C76.000,57.790 75.971,58.641 75.849,61.307 ZM71.350,40.898 C71.239,38.460 70.831,37.137 70.489,36.256 C70.035,35.089 69.493,34.256 68.619,33.381 C67.744,32.506 66.911,31.965 65.744,31.511 C64.863,31.169 63.539,30.761 61.102,30.650 C58.466,30.530 57.675,30.505 51.000,30.505 C44.325,30.505 43.534,30.530 40.898,30.650 C38.460,30.761 37.137,31.169 36.256,31.511 C35.089,31.965 34.256,32.506 33.381,33.381 C32.506,34.256 31.964,35.089 31.511,36.256 C31.169,37.137 30.761,38.460 30.650,40.898 C30.530,43.534 30.505,44.325 30.505,51.000 C30.505,57.675 30.530,58.466 30.650,61.102 C30.761,63.540 31.169,64.863 31.511,65.744 C31.964,66.911 32.506,67.744 33.381,68.619 C34.256,69.494 35.089,70.035 36.256,70.489 C37.137,70.831 38.460,71.239 40.898,71.350 C43.534,71.470 44.324,71.495 51.000,71.495 C57.676,71.495 58.466,71.470 61.102,71.350 C63.539,71.239 64.863,70.831 65.744,70.489 C66.911,70.035 67.744,69.494 68.619,68.619 C69.493,67.744 70.035,66.911 70.489,65.744 C70.831,64.863 71.239,63.540 71.350,61.102 C71.470,58.466 71.495,57.675 71.495,51.000 C71.495,44.325 71.470,43.534 71.350,40.898 ZM64.345,40.655 C62.688,40.655 61.345,39.312 61.345,37.655 C61.345,35.998 62.688,34.655 64.345,34.655 C66.002,34.655 67.345,35.998 67.345,37.655 C67.345,39.312 66.002,40.655 64.345,40.655 ZM51.000,63.838 C43.910,63.838 38.162,58.090 38.162,51.000 C38.162,43.910 43.910,38.162 51.000,38.162 C58.090,38.162 63.838,43.910 63.838,51.000 C63.838,58.090 58.090,63.838 51.000,63.838 ZM51.000,42.667 C46.398,42.667 42.667,46.398 42.667,51.000 C42.667,55.602 46.398,59.333 51.000,59.333 C55.602,59.333 59.333,55.602 59.333,51.000 C59.333,46.398 55.602,42.667 51.000,42.667 Z"/>
</svg>
