<svg
 xmlns="http://www.w3.org/2000/svg"
 xmlns:xlink="http://www.w3.org/1999/xlink"
 viewBox="0 0 46 46" width="23" height="23">
<path fill-rule="evenodd"
 d="M43.077,12.473 C43.010,12.666 42.901,12.882 42.720,13.095 C42.230,13.672 41.405,14.011 40.262,14.110 C40.189,14.245 40.089,14.390 39.948,14.528 C39.476,14.983 38.731,15.210 37.725,15.182 C37.372,15.595 36.639,16.125 35.224,16.048 C35.136,16.161 35.022,16.273 34.871,16.373 C34.250,16.785 33.330,16.799 32.063,16.413 C31.576,16.678 30.616,16.958 29.221,16.287 C26.994,16.303 26.433,16.645 25.890,16.976 C25.445,17.246 24.948,17.548 23.878,17.679 L23.801,22.493 C23.253,22.604 22.716,22.733 22.207,22.893 L22.122,17.679 C21.052,17.548 20.552,17.246 20.111,16.976 C19.568,16.645 19.006,16.303 16.779,16.287 C15.387,16.958 14.426,16.678 13.937,16.413 C12.667,16.799 11.749,16.785 11.129,16.373 C10.977,16.273 10.863,16.161 10.776,16.048 C9.365,16.125 8.625,15.595 8.275,15.182 C7.271,15.210 6.520,14.987 6.053,14.528 C5.909,14.390 5.811,14.247 5.738,14.110 C4.597,14.014 3.769,13.672 3.280,13.095 C3.099,12.879 2.990,12.666 2.923,12.473 C1.853,12.290 0.007,11.777 0.007,10.412 C0.007,9.289 1.355,9.081 3.807,8.710 C5.244,8.488 7.031,8.216 8.801,7.707 C10.331,7.268 11.564,6.562 12.755,5.884 C14.229,5.043 15.618,4.248 17.226,4.248 C18.769,4.248 20.622,5.237 21.931,6.091 L21.899,4.181 C21.230,3.793 20.781,3.068 20.781,2.234 C20.781,0.994 21.773,-0.010 22.997,-0.010 C24.221,-0.010 25.214,0.994 25.214,2.234 C25.214,3.068 24.764,3.793 24.096,4.181 L24.064,6.088 C25.374,5.234 27.225,4.245 28.770,4.245 C30.373,4.245 31.765,5.040 33.239,5.881 C34.428,6.560 35.661,7.265 37.193,7.705 C38.965,8.213 40.750,8.486 42.188,8.707 C44.639,9.081 45.987,9.289 45.987,10.412 C45.987,11.777 44.141,12.291 43.077,12.473 ZM21.952,7.748 C21.047,7.095 18.801,5.603 17.221,5.603 C15.968,5.603 14.783,6.280 13.410,7.063 C12.210,7.751 10.850,8.527 9.163,9.011 C7.311,9.544 5.477,9.824 4.003,10.050 C3.069,10.194 1.947,10.366 1.460,10.546 C1.769,10.786 2.647,11.088 3.572,11.193 L4.320,11.277 L4.168,11.939 C4.182,12.222 4.629,12.737 6.258,12.780 L7.064,12.802 L6.918,13.461 C6.971,13.604 7.348,13.906 8.562,13.812 L9.118,13.769 L9.237,14.240 C9.294,14.336 9.669,14.851 11.076,14.657 L11.776,14.561 L11.832,15.218 C11.904,15.309 12.401,15.509 13.817,15.029 L14.241,14.886 L14.496,15.180 C14.578,15.242 15.145,15.611 16.313,15.005 L16.457,14.930 L16.619,14.930 C19.350,14.930 20.118,15.398 20.799,15.813 C21.153,16.028 21.446,16.206 22.089,16.306 L21.952,7.748 ZM41.986,10.054 C40.512,9.827 38.678,9.547 36.826,9.014 C35.142,8.528 33.779,7.753 32.579,7.066 C31.206,6.282 30.022,5.607 28.770,5.607 C27.188,5.607 24.942,7.098 24.037,7.751 L23.899,16.309 C24.548,16.206 24.841,16.028 25.196,15.813 C25.877,15.398 26.645,14.930 29.375,14.930 L29.538,14.930 L29.679,15.005 C30.849,15.614 31.413,15.242 31.496,15.180 L31.783,14.849 L32.175,15.027 C33.590,15.506 34.088,15.306 34.160,15.215 L34.216,14.558 L34.915,14.654 C36.325,14.851 36.698,14.331 36.754,14.237 L36.892,13.703 L37.431,13.812 C38.647,13.906 39.021,13.604 39.075,13.461 L38.915,12.689 L39.735,12.780 C41.363,12.737 41.810,12.219 41.824,11.939 L41.659,11.209 L42.419,11.193 C43.343,11.088 44.217,10.786 44.529,10.546 C44.040,10.369 42.917,10.196 41.986,10.054 ZM16.393,18.324 C16.452,18.316 16.512,18.310 16.574,18.305 C17.612,17.836 20.778,18.768 20.778,19.711 C20.778,20.659 17.380,21.228 16.400,20.599 C15.725,20.761 15.496,21.119 15.496,21.286 C15.496,22.073 18.099,22.464 19.820,22.725 C20.466,22.825 21.121,22.924 21.760,23.043 C21.646,23.086 21.534,23.127 21.424,23.172 C20.294,23.639 19.570,24.255 19.118,24.891 C17.827,24.694 16.614,24.492 15.624,24.121 C13.687,23.393 13.279,22.181 13.279,21.289 C13.279,20.064 14.254,18.612 16.393,18.324 ZM21.659,23.749 C22.965,23.210 24.600,22.965 26.177,22.725 C27.899,22.466 30.502,22.073 30.502,21.286 C30.502,21.119 30.272,20.764 29.597,20.599 C28.617,21.230 25.219,20.659 25.219,19.711 C25.219,18.768 28.386,17.836 29.423,18.305 C29.482,18.313 29.546,18.316 29.605,18.324 C31.744,18.612 32.718,20.064 32.720,21.285 C32.720,22.175 32.313,23.391 30.376,24.115 C29.290,24.525 27.936,24.730 26.504,24.945 C23.396,25.413 21.196,25.855 21.196,27.248 C21.196,27.935 21.603,28.437 22.316,28.951 L22.274,26.618 C22.615,26.410 23.120,26.235 23.734,26.084 L23.697,28.149 C23.396,28.420 22.944,28.716 22.322,29.086 C22.245,29.131 22.167,29.177 22.085,29.225 C21.560,29.530 20.972,29.875 20.424,30.298 C19.600,29.560 18.980,28.606 18.980,27.248 C18.980,26.157 19.445,24.662 21.659,23.749 ZM23.612,32.409 L23.575,34.511 C23.300,34.796 22.962,35.069 22.766,35.230 L22.433,35.502 L22.300,35.610 C22.300,35.610 22.076,35.815 21.925,35.931 C21.808,36.019 21.677,36.119 21.529,36.234 C21.318,36.402 21.057,36.609 20.778,36.900 C19.988,36.183 19.131,35.167 19.131,33.781 C19.131,31.674 20.938,30.618 22.388,29.772 C23.889,28.894 24.799,28.288 24.799,27.254 C24.799,26.732 24.490,26.343 23.945,26.039 C24.716,25.861 25.631,25.710 26.587,25.567 C26.917,26.152 27.018,26.747 27.018,27.254 C27.018,29.659 25.065,30.798 23.497,31.715 C22.161,32.493 21.350,33.021 21.348,33.778 C21.348,34.287 21.752,34.783 22.428,35.370 L22.388,33.169 C22.678,32.929 23.096,32.667 23.580,32.382 C23.588,32.377 23.593,32.375 23.601,32.369 C23.604,32.367 23.607,32.364 23.612,32.361 C23.676,32.323 23.737,32.288 23.801,32.251 C24.357,31.927 24.985,31.558 25.567,31.106 C26.305,31.768 26.856,32.611 26.856,33.775 C26.856,35.532 25.485,36.692 24.610,37.401 C24.461,37.522 24.139,37.717 24.067,37.757 C23.778,37.926 23.370,38.124 22.957,38.338 C22.753,38.446 22.545,38.562 22.377,38.683 C22.207,38.807 22.087,38.923 22.020,39.034 C21.986,39.090 21.965,39.155 21.949,39.236 L21.946,39.268 C21.943,39.278 21.943,39.290 21.943,39.290 C21.940,39.295 21.940,39.302 21.938,39.308 C21.935,39.328 21.933,39.354 21.933,39.376 C21.931,39.424 21.933,39.470 21.940,39.521 C21.968,39.720 22.074,39.958 22.245,40.197 C22.327,40.313 22.420,40.429 22.521,40.548 L22.500,39.384 C22.500,39.384 22.625,39.268 22.731,39.192 C22.878,39.085 23.080,38.975 23.234,38.894 C23.322,38.847 23.407,38.805 23.493,38.761 L23.468,40.038 C23.306,40.265 23.088,40.505 22.896,40.710 L22.785,40.830 C22.785,40.833 22.782,40.836 22.779,40.839 C22.587,41.044 22.388,41.256 22.202,41.483 C22.170,41.519 22.140,41.558 22.111,41.596 C21.869,41.426 21.616,41.243 21.366,41.016 C21.082,40.755 20.789,40.421 20.605,39.977 C20.560,39.869 20.523,39.753 20.493,39.634 C20.477,39.572 20.466,39.516 20.456,39.454 L20.432,39.278 C20.411,39.031 20.435,38.767 20.501,38.519 C20.571,38.274 20.677,38.047 20.799,37.859 C20.922,37.668 21.052,37.509 21.183,37.372 C21.443,37.097 21.691,36.897 21.909,36.722 C22.348,36.382 22.670,36.148 22.867,35.976 C22.896,35.949 23.202,35.671 23.229,35.650 C24.102,34.936 24.639,34.370 24.639,33.781 C24.639,33.268 24.266,32.862 23.612,32.409 ZM22.444,41.682 C22.662,41.415 22.898,41.167 23.127,40.924 C23.356,40.682 23.575,40.440 23.742,40.200 C23.912,39.960 24.022,39.723 24.046,39.524 C24.054,39.473 24.056,39.424 24.054,39.379 C24.054,39.357 24.051,39.330 24.048,39.311 C24.046,39.306 24.046,39.298 24.043,39.292 C24.043,39.292 24.040,39.281 24.040,39.271 L24.037,39.238 C24.024,39.158 24.001,39.093 23.966,39.037 C23.902,38.931 23.787,38.818 23.626,38.699 C23.902,38.557 24.165,38.425 24.370,38.303 C24.440,38.263 24.506,38.226 24.562,38.190 L24.860,37.999 L24.924,37.953 C24.994,37.899 25.065,37.840 25.139,37.779 C25.155,37.805 25.174,37.832 25.192,37.859 C25.312,38.047 25.422,38.271 25.488,38.514 C25.557,38.761 25.578,39.026 25.557,39.273 L25.533,39.448 C25.523,39.513 25.511,39.570 25.496,39.629 C25.470,39.744 25.429,39.861 25.384,39.971 C25.200,40.416 24.911,40.749 24.623,41.011 C24.336,41.275 24.040,41.479 23.761,41.674 C23.485,41.867 23.218,42.045 22.984,42.228 C22.750,42.414 22.550,42.606 22.407,42.813 C22.266,43.017 22.186,43.244 22.167,43.470 C22.146,43.678 22.210,43.888 22.305,44.052 C22.393,44.209 22.502,44.330 22.601,44.427 L22.577,43.131 C22.601,43.085 22.627,43.036 22.659,42.991 C22.771,42.829 22.939,42.662 23.173,42.476 C23.194,42.458 23.218,42.441 23.242,42.422 C23.271,42.401 23.303,42.379 23.333,42.358 C23.367,42.334 23.402,42.306 23.439,42.279 L23.439,42.283 C23.556,42.197 23.679,42.113 23.806,42.023 C23.918,42.191 24.019,42.366 24.093,42.551 C24.221,42.867 24.264,43.201 24.221,43.489 C24.176,43.799 24.027,44.033 23.875,44.195 C23.721,44.359 23.564,44.464 23.434,44.543 C23.417,44.551 23.407,44.556 23.394,44.564 L23.375,45.620 C23.375,45.829 23.205,46.002 22.997,46.002 C22.790,46.002 22.619,45.829 22.619,45.620 L22.601,44.564 C22.587,44.556 22.574,44.551 22.561,44.543 C22.430,44.464 22.274,44.359 22.119,44.195 C21.968,44.033 21.816,43.799 21.773,43.489 C21.731,43.201 21.773,42.867 21.901,42.551 C22.028,42.233 22.228,41.945 22.444,41.682 ZM23.694,44.057 C23.787,43.893 23.854,43.683 23.833,43.475 C23.814,43.252 23.734,43.026 23.591,42.818 C23.543,42.749 23.487,42.681 23.428,42.616 L23.399,44.432 C23.497,44.335 23.607,44.212 23.694,44.057 Z"/>
</svg>
