<svg
 xmlns="http://www.w3.org/2000/svg"
 xmlns:xlink="http://www.w3.org/1999/xlink"
 viewBox="0 0 30.5 31.5"
 width="15.25"
 height="15.75">
<path fill-rule="evenodd" stroke-width="1px" stroke-linecap="butt" stroke-linejoin="miter"
 d="M21.620,19.133 L22.559,9.200 L24.884,9.200 L27.433,29.065 L20.681,29.065 L21.620,19.133 ZM1.959,29.065 L3.835,9.200 L8.385,9.200 L8.385,11.618 C8.385,11.847 8.572,12.032 8.803,12.032 C9.034,12.032 9.221,11.847 9.221,11.618 L9.221,9.200 L15.995,9.200 L15.995,11.618 C15.995,11.847 16.182,12.032 16.413,12.032 C16.644,12.032 16.832,11.847 16.832,11.618 L16.832,9.200 L21.715,9.200 L19.836,29.067 L1.959,29.067 L1.959,29.065 ZM9.224,5.342 C9.224,5.205 9.270,1.969 12.171,1.839 L13.044,1.839 C13.248,1.849 13.435,1.875 13.613,1.913 C12.537,2.879 12.192,4.396 12.192,5.342 L12.192,8.370 L9.225,8.370 L9.225,5.342 L9.224,5.342 ZM14.514,2.273 C15.962,3.189 15.997,5.232 15.999,5.340 L15.999,8.368 L13.030,8.368 L13.030,5.340 C13.030,5.234 13.063,3.189 14.514,2.273 ZM15.978,1.837 L16.851,1.837 C19.757,1.965 19.804,5.203 19.804,5.340 L19.804,8.368 L16.838,8.368 L16.838,5.340 C16.838,4.392 16.495,2.877 15.412,1.912 C15.586,1.875 15.773,1.846 15.978,1.837 ZM25.620,8.368 L20.640,8.368 L20.640,5.340 C20.640,3.899 19.856,1.137 16.869,1.005 L15.784,1.005 C15.727,1.005 15.671,1.016 15.621,1.038 C15.206,1.085 14.834,1.181 14.507,1.324 C14.095,1.145 13.617,1.028 13.063,1.003 L11.980,1.003 C11.922,1.003 11.866,1.015 11.816,1.036 C9.117,1.349 8.385,3.950 8.385,5.337 L8.385,8.364 L3.074,8.364 L1.039,29.897 L28.384,29.897 L25.620,8.368 Z"/>
</svg>
