<svg
 xmlns="http://www.w3.org/2000/svg"
 xmlns:xlink="http://www.w3.org/1999/xlink"
 viewBox="0 0 80 70" width="40" height="35">
<path fill-rule="evenodd"
 d="M55.065,37.847 L55.065,26.967 C54.708,26.953 54.299,26.942 53.841,26.942 C39.541,26.942 34.028,35.001 32.018,39.807 L29.400,46.066 L28.708,39.309 C28.658,38.844 27.613,27.810 34.900,19.658 C39.474,14.539 46.235,11.770 55.012,11.412 L55.098,0.982 L79.996,19.214 L55.065,37.847 ZM58.438,14.844 L56.732,14.854 C48.140,14.897 41.657,17.297 37.468,21.982 C34.587,25.206 33.228,29.034 32.601,32.233 C39.195,24.446 49.228,23.463 53.841,23.463 C55.750,23.463 56.969,23.623 57.022,23.632 L58.526,23.832 L58.526,30.926 L74.154,19.242 L58.496,7.781 L58.438,14.844 ZM54.819,45.128 L58.283,45.128 L58.283,70.008 L0.002,70.008 L0.002,45.128 L3.463,45.128 L3.463,66.533 L54.819,66.533 L54.819,45.128 Z"/>
</svg>
