<svg
 xmlns="http://www.w3.org/2000/svg"
 xmlns:xlink="http://www.w3.org/1999/xlink"
 viewBox="0 0 154.5 154.5"
 width="77.25" height="77.25">
<path fill-rule="evenodd"
 d="M104.580,80.312 L89.842,80.312 C88.484,80.312 87.380,79.211 87.380,77.858 C87.380,76.504 88.484,75.403 89.842,75.403 L104.580,75.403 C105.938,75.403 107.042,76.504 107.042,77.858 C107.042,79.211 105.938,80.312 104.580,80.312 ZM102.119,87.675 L92.304,87.675 C90.946,87.675 89.842,86.576 89.842,85.222 C89.842,83.868 90.946,82.767 92.304,82.767 L102.119,82.767 C103.476,82.767 104.580,83.868 104.580,85.222 C104.580,86.576 103.476,87.675 102.119,87.675 ZM99.657,95.040 L94.766,95.040 C93.408,95.040 92.304,93.940 92.304,92.586 C92.304,91.231 93.408,90.131 94.766,90.131 L99.657,90.131 C101.015,90.131 102.119,91.231 102.119,92.586 C102.119,93.940 101.015,95.040 99.657,95.040 ZM71.148,90.622 C70.914,90.315 70.554,90.131 70.164,90.131 L60.268,90.131 L60.268,70.493 L68.884,70.493 C72.593,70.493 76.387,68.432 80.832,63.997 C82.014,62.818 83.553,61.591 85.038,60.404 C86.577,59.178 88.168,57.905 89.448,56.633 C93.453,52.640 95.857,47.931 96.734,46.029 C99.024,46.540 99.657,49.318 99.657,50.856 C99.657,54.432 97.376,56.534 95.171,58.568 C94.717,58.989 94.273,59.398 93.863,59.807 C91.648,62.016 90.150,64.455 89.866,66.235 C88.374,67.078 87.347,68.660 87.347,70.493 C87.347,71.517 87.664,72.465 88.201,73.251 C86.297,73.931 84.918,75.730 84.918,77.858 C84.918,79.997 86.305,81.801 88.225,82.473 C87.696,83.258 87.380,84.203 87.380,85.222 C87.380,87.361 88.768,89.165 90.688,89.836 C90.158,90.622 89.842,91.566 89.842,92.586 C89.842,93.485 90.105,94.316 90.527,95.040 L79.962,95.040 C76.482,95.040 73.270,93.429 71.148,90.622 ZM57.805,95.040 L47.958,95.040 L47.958,65.584 L57.805,65.584 L57.805,95.040 ZM104.580,70.493 C104.580,71.847 103.476,72.948 102.119,72.948 L92.270,72.948 C90.913,72.948 89.809,71.847 89.809,70.493 C89.809,69.139 90.913,68.038 92.270,68.038 L102.119,68.038 C103.476,68.038 104.580,69.139 104.580,70.493 ZM109.504,77.858 C109.504,75.718 108.116,73.914 106.196,73.242 C106.730,72.457 107.042,71.512 107.042,70.493 C107.042,67.785 104.834,65.584 102.119,65.584 L92.640,65.584 C93.092,64.582 93.999,63.146 95.607,61.542 C95.996,61.153 96.415,60.769 96.846,60.368 C99.192,58.204 102.119,55.508 102.119,50.856 C102.119,47.194 100.005,43.492 95.964,43.492 C95.459,43.492 95.008,43.795 94.818,44.265 C94.794,44.323 92.399,50.222 87.709,54.899 C86.527,56.077 84.988,57.303 83.499,58.490 C81.960,59.717 80.367,60.990 79.088,62.262 C75.195,66.149 71.854,68.038 68.884,68.038 L60.268,68.038 L60.268,65.584 C60.268,64.230 59.164,63.129 57.805,63.129 L47.958,63.129 C46.600,63.129 45.497,64.230 45.497,65.584 L45.497,95.040 C45.497,96.395 46.600,97.495 47.958,97.495 L57.805,97.495 C59.164,97.495 60.268,96.395 60.268,95.040 L60.268,92.586 L69.569,92.586 C72.154,95.715 75.908,97.495 79.962,97.495 L99.657,97.495 C102.373,97.495 104.580,95.294 104.580,92.586 C104.580,91.566 104.268,90.622 103.735,89.836 C105.655,89.165 107.042,87.361 107.042,85.222 C107.042,84.203 106.730,83.258 106.196,82.473 C108.116,81.801 109.504,79.997 109.504,77.858 Z"/>
</svg>
