<svg
 xmlns="http://www.w3.org/2000/svg"
 xmlns:xlink="http://www.w3.org/1999/xlink"
 viewBox="0 0 100 100"
 width="50" height="50">
<path fill-rule="evenodd"  fill="rgb(95, 169, 221)"
 d="M-0.000,0.000 L100.000,0.000 L100.000,100.000 L-0.000,100.000 L-0.000,0.000 Z"/>
<path fill-rule="evenodd"  fill="rgb(255, 255, 255)"
 d="M74.998,34.853 L74.998,34.853 L74.998,34.853 M59.616,30.000 C53.950,30.000 49.357,34.634 49.357,40.350 C49.357,41.162 49.448,41.951 49.623,42.709 C41.097,42.277 33.538,38.156 28.479,31.894 C27.596,33.423 27.090,35.201 27.090,37.098 C27.090,40.689 28.901,43.857 31.653,45.713 C29.972,45.660 28.390,45.194 27.007,44.419 C27.006,44.462 27.006,44.505 27.006,44.549 C27.006,49.564 30.542,53.747 35.235,54.698 C34.374,54.935 33.468,55.061 32.532,55.061 C31.871,55.061 31.229,54.996 30.603,54.875 C31.908,58.988 35.696,61.980 40.185,62.064 C36.674,64.840 32.251,66.494 27.445,66.494 C26.617,66.494 25.801,66.445 24.998,66.350 C29.538,69.287 34.930,71.000 40.723,71.000 C59.592,71.000 69.910,55.228 69.910,41.550 C69.910,41.102 69.900,40.655 69.880,40.211 C71.884,38.752 73.623,36.929 74.998,34.853 C73.159,35.677 71.182,36.233 69.107,36.483 C71.225,35.202 72.851,33.174 73.617,30.757 C71.635,31.943 69.440,32.804 67.103,33.268 C65.232,31.257 62.566,30.000 59.616,30.000 "/>
</svg>
